<svg data-name="Camada 1" xmlns="http://www.w3.org/2000/svg" viewBox="0 0 500 500"><title>13-arrow5</title><path d="M250 500c138.07 0 250-111.93 250-250S388.07 0 250 0 0 111.93 0 250s111.93 250 250 250zm25-368.33a128.78 128.78 0 0 1 45.36 17.86 23.43 23.43 0 0 1-12.5 43.41 24.29 24.29 0 0 1-12.82-3.62c-16.77-9.86-32.55-15.45-48.34-15.45-19.4 0-29.59 8.88-29.59 20.06v.66c0 15.13 9.86 20.06 49.65 30.25 46.69 12.17 73 28.94 73 69.05v.66c0 39.37-25.86 63.86-64.76 69.89v9.45a24.77 24.77 0 0 1-49.55 0v-11a147.38 147.38 0 0 1-56.68-24.63 23.65 23.65 0 0 1-9.54-19.07 23.3 23.3 0 0 1 23.68-23.35 24.35 24.35 0 0 1 14.47 4.6c17.43 12.82 36.5 20.72 58.86 20.72 20.72 0 33.21-8.22 33.21-21.7v-.66c0-12.82-7.89-19.4-46.36-29.27-46.36-11.84-76.29-24.66-76.29-70.37v-.66c0-34.93 23.47-60 58.66-67.22v-9.69a24.77 24.77 0 0 1 49.55 0zm-25 318.78c-110.71 0-200.45-89.74-200.45-200.45S139.29 49.55 250 49.55 450.45 139.29 450.45 250 360.71 450.45 250 450.45z"/></svg>