<svg viewBox="0 0 792.1 500.2" xmlns="http://www.w3.org/2000/svg"><path d="m153.6 441.1c-52.7 0-96.4-43.2-96.4-96.2s43.8-97 96.4-97h7.1l33-49.4c-12.5-5.3-25.9-7.1-40.2-7.1-84.7 0-153.5 68.9-153.5 153.5s68.8 152.6 153.6 152.6c72.3 0 142.9-58.2 153.6-130.6l-58.9 4.4c-11.7 38-54.5 69.8-94.7 69.8zm483.9-246.1c-16.1 0-31.3 2.6-49.1 7.1 8 18.5 17 37.9 25 52a104.14 104.14 0 0 1 24.1-2.6c53.6 0 97.3 44.1 97.3 97 0 52-43.8 95.3-97.3 95.3-52.7 0-95.5-43.2-95.5-95.3 0-12.4 1.8-22.9 4.5-30.9-13.4-17.6-27.7-50.3-33-60-19.6 26.5-29.5 56.5-29.5 90.9 0 83.8 69.6 151.7 153.6 151.7 85.7 0 154.5-67.9 154.5-151.7-.1-84.7-68.9-153.5-154.6-153.5zm-102.7 58.2c34.8 71.5 75 107.6 100 107.6 10.7 0 19.6-5.3 23.2-16.8.9-1.8.9-5.3.9-7.1 0-8.8-5.4-19.4-14.3-22.9-41.1-15-89.3-150.9-89.3-150.9l-8.9-34.4 4.5-67.9 46.4-15c10.7-2.6 17.9-13.2 17.9-22.9a25.1 25.1 0 0 0 -1.8-7.9c-5.4-8.8-15.2-15-25.9-15-1.8 0-4.5 0-6.3.9l-64.2 22c-8.9 2.6-14.3 10.6-17 21.2l-2.7 67.9h-189.2v-45l29.5-3.5c12.5-1.8 19.6-8.8 19.6-24.7 0-11.5-8-22.9-19.6-23.8l-123.3-5.3c-8.9 0-17 1.8-22.3 8.8a19.81 19.81 0 0 0 -5.4 13.2c0 2.6.9 5.3 1.8 8.8l13.4 22.9c5.4 8.8 14.3 16.8 25.9 14.1l30.4-5.3v58.2l-116.1 189c-1.8 2.6-2.7 7.1-2.7 12.4a34.63 34.63 0 0 0 2.7 13.2 25.16 25.16 0 0 0 21.4 11.5l233.9-15.9 121.4-126.2c4.5 13.2 9 25.6 16.1 38.8zm-325.9 51.2 73.2-118.2 59.9 109.3zm179.5-26.5-65.2-117.3 181.3 1.8z"/></svg>