<svg viewBox="0 0 128 40" xmlns="http://www.w3.org/2000/svg" xmlns:xlink="http://www.w3.org/1999/xlink"><linearGradient id="a" gradientTransform="matrix(1 0 0 -1 0 42)" gradientUnits="userSpaceOnUse" x1="16.26" x2="21.86" y1="35.42" y2="12.43"><stop offset="0" stop-color="#006884"/><stop offset="1" stop-color="#8ad1d0"/></linearGradient><linearGradient id="b" gradientTransform="matrix(1 0 0 -1 0 42)" gradientUnits="userSpaceOnUse" x1="9.43" x2="24.68" y1="32.13" y2="23.88"><stop offset="0" stop-color="#24bbb6"/><stop offset="1" stop-color="#dbe692"/></linearGradient><linearGradient id="c" gradientTransform="matrix(1 0 0 -1 0 42)" gradientUnits="userSpaceOnUse" x1="27" x2="27" y1="18.38" y2="26.33"><stop offset="0" stop-color="#fcc072"/><stop offset="1" stop-color="#f58a5b"/></linearGradient><linearGradient id="d" gradientTransform="matrix(1 0 0 -1 0 42)" gradientUnits="userSpaceOnUse" x1="12.37" x2="24.42" y1="8.76" y2="21.03"><stop offset="0" stop-color="#712b8f"/><stop offset="1" stop-color="#ea1d27"/></linearGradient><path d="m124 40h-120a4 4 0 0 1 -4-4v-32a4 4 0 0 1 4-4h120a4 4 0 0 1 4 4v32a4 4 0 0 1 -4 4z"/><path d="m9.8 19.6v-10.5a1.1 1.1 0 0 1 1-1.1 1.49 1.49 0 0 1 1 .3l19.3 10.6a.83.83 0 0 1 0 1.6l-19.3 10.6a2 2 0 0 1 -1 .3 1.1 1.1 0 0 1 -1-1.1z" fill="url(#a)"/><path d="m22.3 19.7-11.7-11.7h.2a1.49 1.49 0 0 1 1 .3l14.2 7.8z" fill="url(#b)"/><path d="m25.9 23.2-3.6-3.6 3.7-3.7 5.1 2.8a.83.83 0 0 1 0 1.6z" fill="url(#c)"/><path d="m10.7 31.2 11.6-11.6 3.6 3.6-14.1 7.7a1.61 1.61 0 0 1 -1.1.3z" fill="url(#d)"/><g fill="#fff"><path d="m71.1 33.9a4.79 4.79 0 0 1 -1.1-1.5l1.6-.7a9.22 9.22 0 0 0 .5.8 2.47 2.47 0 0 0 1.6.8 2.29 2.29 0 0 0 1.7-.8 3.1 3.1 0 0 0 .5-1.7v-.6c-1.2 1.5-3.7 1.3-5.1-.3a4.43 4.43 0 0 1 0-5.9c1.5-1.5 3.7-1.7 5-.3v-.7h1.7v7.5a4.33 4.33 0 0 1 -1.6 3.7 3.69 3.69 0 0 1 -2.3.7 4.59 4.59 0 0 1 -2.5-1zm41.9.4 1.7-4-3-6.9h1.7l2.1 4.9 2.1-4.9h1.7l-4.6 10.9zm-8.1-3.8a2.64 2.64 0 0 1 -.7-1.9 2.27 2.27 0 0 1 .6-1.6 3.86 3.86 0 0 1 2.8-1 3.42 3.42 0 0 1 1.8.4 1.7 1.7 0 0 0 -1.8-1.7 1.85 1.85 0 0 0 -1.7 1.1l-1.5-.6a3.18 3.18 0 0 1 3.1-2 3.39 3.39 0 0 1 2.6 1 3.69 3.69 0 0 1 .8 2.6v4.2h-1.7v-.7a3.11 3.11 0 0 1 -.9.7 3.19 3.19 0 0 1 -1.4.3 3.86 3.86 0 0 1 -2-.8zm-53.3-3.6a4.15 4.15 0 0 1 4.2-4.2 4.22 4.22 0 0 1 4.2 4.2 4.2 4.2 0 1 1 -8.4 0zm9 0a4.15 4.15 0 0 1 4.2-4.2 4.22 4.22 0 0 1 4.2 4.2 4.15 4.15 0 0 1 -4.2 4.2 4.22 4.22 0 0 1 -4.2-4.2zm-20.3 2.2a6.58 6.58 0 0 1 .1-9.2 6.35 6.35 0 0 1 4.6-1.9 6.2 6.2 0 0 1 4.4 1.8l-1.2 1.3a4.47 4.47 0 0 0 -6.4.1 4.83 4.83 0 0 0 0 6.7 4.53 4.53 0 0 0 6.6.1 3.6 3.6 0 0 0 .9-2.2h-4.2v-1.8h5.9a6.15 6.15 0 0 1 .1 1.4 5.76 5.76 0 0 1 -1.6 4 6.13 6.13 0 0 1 -4.3 1.7 7.43 7.43 0 0 1 -4.9-2zm42.3.7a4.56 4.56 0 0 1 0-6 3.64 3.64 0 0 1 5.4 0 5.93 5.93 0 0 1 1.1 1.9l-5.5 2.3a2.13 2.13 0 0 0 2 1.3 2.26 2.26 0 0 0 2.1-1.2l1.5 1a2.65 2.65 0 0 0 -.5.6 4.38 4.38 0 0 1 -6.1.1zm10.4 1.2v-11.1h3.6a3.59 3.59 0 0 1 3.8 3.3 3.35 3.35 0 0 1 -3.4 3.3h-2.2v4.4h-1.8zm8.4 0v-11.1h1.7v11.1zm-22.6-.2v-12.4h1.8v12.4zm30.5-3.1a2.73 2.73 0 0 0 -1.6-.4c-1.2 0-1.9.6-1.9 1.3a1.26 1.26 0 0 0 1.4 1.1 2.09 2.09 0 0 0 2.1-2zm-51.2-.8a2.31 2.31 0 1 0 -4.6 0 2.37 2.37 0 0 0 2.3 2.5 2.43 2.43 0 0 0 2.3-2.5zm9 0a2.31 2.31 0 1 0 -4.6 0 2.31 2.31 0 1 0 4.6 0zm8.9.7a.37.37 0 0 1 .1-.3v-.9c0-.1-.1-.3-.1-.4a2.32 2.32 0 0 0 -2.1-1.7 2.43 2.43 0 0 0 -2.2 2.5 2.38 2.38 0 0 0 2.3 2.5c.8.1 1.6-.6 2-1.7zm7.3-.9 3.7-1.6a1.67 1.67 0 0 0 -1.5-.9 2.42 2.42 0 0 0 -2.2 2.5zm15.3-3.4a1.74 1.74 0 0 0 -1.9-1.7h-2v3.5h2.1a1.79 1.79 0 0 0 1.8-1.8z"/><path d="m114.3 32.3h-.1v-.1h.1-.1v.1z"/><path d="m114.3 32.3v-.1z"/><path d="m114.3 32.2v.1z"/><path d="m114.3 32.3v-.1z"/><path d="m114.4 32.2v.1z"/><path d="m114.4 32.3v-.1z"/><path d="m114.5 32.2c0 .1-.1.1 0 0z"/><path d="m114.5 32.3v-.1.1-.1.1-.1z"/><path d="m114.6 32.2h-.1.1v.1z"/><path d="m114.6 32.3v-.1z"/><path d="m38.9 10.1a2.78 2.78 0 0 1 2.9-2.9 2.66 2.66 0 0 1 2.3 1.2l-.8.5a1.81 1.81 0 0 0 -1.5-.7 1.87 1.87 0 0 0 -1.9 2 1.87 1.87 0 0 0 1.9 2 2 2 0 0 0 1.3-.5v-.9h-1.6v-.9h2.7v2.1a2.93 2.93 0 0 1 -2.3 1 2.86 2.86 0 0 1 -3-2.9z"/><path d="m45.4 12.9v-5.6h3.8v.9h-2.9v1.4h2.8v.9h-2.8v1.6h2.9v.9z"/><path d="m52 12.9v-4.7h-1.7v-.9h4.4v.9h-1.7v4.7z"/><path d="m58.1 12.9v-5.6h1v5.6z"/><path d="m61.8 12.9v-4.7h-1.7v-.9h4.4v.9h-1.7v4.7z"/><path d="m67.7 10.1a2.9 2.9 0 0 1 5.8 0 2.78 2.78 0 0 1 -2.9 2.9 2.84 2.84 0 0 1 -2.9-2.9zm4.7 0a1.81 1.81 0 0 0 -1.9-2 1.92 1.92 0 0 0 -1.9 2 1.81 1.81 0 0 0 1.9 2 1.86 1.86 0 0 0 1.9-2z"/><path d="m78.5 12.9-2.9-4v4h-1v-5.6h1l2.9 3.9v-3.9h1v5.6z"/></g></svg>