<?xml version="1.0" encoding="utf-8"?>
<!-- Generator: Adobe Illustrator 21.0.2, SVG Export Plug-In . SVG Version: 6.00 Build 0)  -->
<svg version="1.1" id="Camada_1" xmlns="http://www.w3.org/2000/svg" xmlns:xlink="http://www.w3.org/1999/xlink" x="0px" y="0px"
	 viewBox="0 0 283 284" style="enable-background:new 0 0 283 284;" xml:space="preserve">
<style type="text/css">
	.st0{fill:#503556;}
	.st1{fill:#F70669;}
	.st2{fill:#FF9100;}
	.st3{fill:none;}
	.st4{fill:#F2034B;}
</style>
<title>mova-mais__</title>
<rect class="st0" width="283" height="284"/>
<path class="st1" d="M61.1,129.4c-0.1,1.4-7.2,66.6-7.2,66.6h-7.3c-4.2,0-7.7,3.4-7.7,7.7c0,4.2,3.4,7.7,7.7,7.7c0,0,0,0,0,0H61
	c4,0,7.3-3.1,7.6-7c0,0,7.7-72.6,7.7-72.6c0.8-6,4.5-10.7,9.9-10.8c2,0,4,0.6,5.7,1.8l0,0c-0.7-1.5-1.6-3-2.5-4.4
	C83.2,108.4,63.7,110,61.1,129.4z"/>
<path class="st2" d="M243.9,190.9v-0.5c0,0-7.9-119.8-8.8-123.8c-2.9-12.8-15.1-14.9-22.7-11.5c-2.2,1.1-4.1,2.6-5.7,4.4l0,0
	c0.4-0.2,0.8-0.3,1.2-0.4c1.6-0.3,3.2-0.2,4.8,0.4c7.3,2.7,8,12.2,8,12.2l7.6,119.1c0,0.3,0.1,0.6,0.1,0.9c0.1,0.9,0.3,1.8,0.7,2.7
	c0.5,1.1,1.2,2.1,2.2,2.8c1.4,1.1,3.1,1.7,4.8,1.7c2.5,0,4.9-1.1,6.4-3.1l0.1-0.1l0,0c0.9-1.3,1.3-2.8,1.2-4.4v-0.1
	C243.8,191.1,243.9,191,243.9,190.9z"/>
<path class="st1" d="M212.6,59.6c-1.5-0.5-3.2-0.7-4.8-0.4c-0.4,0.1-0.8,0.2-1.2,0.4c-2.1,2.6-4,7.1-4.8,9.2
	c-6.4,15.6-42.5,103.8-42.5,103.8s-14.7-29.4-17.9-35.3c-2.5-4.7-6.3-9.3-14.1-9.3c-7.4,0-11.2,4.8-13.3,9.4
	c-1.3,2.7-6.2,13.7-7.1,15.7c2.9,5.8,5.9,12,9,18.1l10.8-24.9c0.2-0.6,0.7-1,1.4-1c0.6,0,1.1,0.3,1.3,0.9c0,0,17.5,35.4,18.5,36.9
	c1.6,2.7,3,4.9,5.1,6.5c1.8,1.3,4.2,2.1,7.8,2.1c5.7,0.1,8.4-2.9,10.2-6.4c0.6-1.2,45.3-110.1,46-111.5s0.9-2.5,2-2.7
	c0.6-0.1,1.2,0.2,1.5,0.7C220.7,71.8,220,62.3,212.6,59.6z"/>
<path class="st3" d="M107.1,153l-0.1,0.1l0,0L107.1,153z"/>
<path class="st2" d="M160.9,191.6c-3.6-0.1-6-0.8-7.8-2.1c0,0-8.3,21.7-8.8,22.7c-1,2.3-2.1,2.9-3.9,2.9s-2.8-0.8-3.8-2.7
	c-0.2-0.4-44.3-89.1-44.6-89.7c-1.7-1.2-3.6-1.8-5.7-1.8c-5.4,0.1-9.1,4.8-9.9,10.8c0.4-0.8,1.4-1.2,2.2-0.9
	c0.3,0.1,0.6,0.3,0.7,0.6l45.3,89.4c3.1,6,9.4,9.6,16.1,9.5c12.5,0,16.2-9.7,16.2-9.7l14.3-35.3
	C169.3,188.7,166.6,191.7,160.9,191.6z"/>
<path class="st4" d="M76.4,71.8"/>
</svg>
