<svg enable-background="new 0 0 283 284" viewBox="0 0 283 284" xmlns="http://www.w3.org/2000/svg"><path d="m0 0h283v284h-283z" fill="#503556"/><path d="m61.1 129.4c-.1 1.4-7.2 66.6-7.2 66.6h-7.3c-4.2 0-7.7 3.4-7.7 7.7 0 4.2 3.4 7.7 7.7 7.7h14.4c4 0 7.3-3.1 7.6-7 0 0 7.7-72.6 7.7-72.6.8-6 4.5-10.7 9.9-10.8 2 0 4 .6 5.7 1.8-.7-1.5-1.6-3-2.5-4.4-6.2-10-25.7-8.4-28.3 11z" fill="#f70669"/><path d="m243.9 190.9v-.5s-7.9-119.8-8.8-123.8c-2.9-12.8-15.1-14.9-22.7-11.5-2.2 1.1-4.1 2.6-5.7 4.4.4-.2.8-.3 1.2-.4 1.6-.3 3.2-.2 4.8.4 7.3 2.7 8 12.2 8 12.2l7.6 119.1c0 .3.1.6.1.9.1.9.3 1.8.7 2.7.5 1.1 1.2 2.1 2.2 2.8 1.4 1.1 3.1 1.7 4.8 1.7 2.5 0 4.9-1.1 6.4-3.1l.1-.1c.9-1.3 1.3-2.8 1.2-4.4v-.1c0-.1.1-.2.1-.3z" fill="#ff9100"/><path d="m212.6 59.6c-1.5-.5-3.2-.7-4.8-.4-.4.1-.8.2-1.2.4-2.1 2.6-4 7.1-4.8 9.2-6.4 15.6-42.5 103.8-42.5 103.8s-14.7-29.4-17.9-35.3c-2.5-4.7-6.3-9.3-14.1-9.3-7.4 0-11.2 4.8-13.3 9.4-1.3 2.7-6.2 13.7-7.1 15.7 2.9 5.8 5.9 12 9 18.1l10.8-24.9c.2-.6.7-1 1.4-1 .6 0 1.1.3 1.3.9 0 0 17.5 35.4 18.5 36.9 1.6 2.7 3 4.9 5.1 6.5 1.8 1.3 4.2 2.1 7.8 2.1 5.7.1 8.4-2.9 10.2-6.4.6-1.2 45.3-110.1 46-111.5s.9-2.5 2-2.7c.6-.1 1.2.2 1.5.7.2 0-.5-9.5-7.9-12.2z" fill="#f70669"/><path d="m107.1 153-.1.1z" fill="none"/><path d="m160.9 191.6c-3.6-.1-6-.8-7.8-2.1 0 0-8.3 21.7-8.8 22.7-1 2.3-2.1 2.9-3.9 2.9s-2.8-.8-3.8-2.7c-.2-.4-44.3-89.1-44.6-89.7-1.7-1.2-3.6-1.8-5.7-1.8-5.4.1-9.1 4.8-9.9 10.8.4-.8 1.4-1.2 2.2-.9.3.1.6.3.7.6l45.3 89.4c3.1 6 9.4 9.6 16.1 9.5 12.5 0 16.2-9.7 16.2-9.7l14.3-35.3c-1.9 3.4-4.6 6.4-10.3 6.3z" fill="#ff9100"/></svg>