<svg viewBox="0 0 192.32 189.81" xmlns="http://www.w3.org/2000/svg"><g fill="#a55532" transform="translate(.01)"><path d="m127.17 64.48v59.52h-11.6l-18.2-18.2-18.12 18.2h-11.59v-59.52l29.71 29.71zm-35.56 35.52-15.74-15.79v31.56zm6-24-5.76-5.76 5.76-5.84 5.84 5.84zm21.39 8.17-15.79 15.83 15.74 15.74z"/><path d="m99.82 7.7a3.62 3.62 0 0 0 2.4 1.3 1.71 1.71 0 0 0 1.15-.26 1.06 1.06 0 0 0 .45-.76 1.11 1.11 0 0 0 -.25-.73 2.4 2.4 0 0 0 -.72-.65c-.67-.46-1.66-.83-2.55-1.51a3 3 0 0 1 -1.14-2.37v-.1a2.62 2.62 0 0 1 1.16-2 3.44 3.44 0 0 1 2.16-.62 4.38 4.38 0 0 1 3 1.45l-1.48 1.32a2.4 2.4 0 0 0 -1.65-.8 1.67 1.67 0 0 0 -1 .21.75.75 0 0 0 -.29.53.82.82 0 0 0 .25.61 3.31 3.31 0 0 0 .82.62 11.21 11.21 0 0 1 2.63 1.69 3.23 3.23 0 0 1 .91 2.4 3 3 0 0 1 -1.2 2.28 3.73 3.73 0 0 1 -2.37.63 5.58 5.58 0 0 1 -3.75-1.94z"/><path d="m113.13 12.28a5.45 5.45 0 1 1 4.09-.86 5.45 5.45 0 0 1 -4.09.86zm1.63-8.81a3.49 3.49 0 0 0 -3.52 5.4 3.43 3.43 0 0 0 2.24 1.45 3.49 3.49 0 1 0 1.26-6.87z"/><path d="m125.39 15.48-4.13-1.42 3.5-10.16 3.55 1.22a3 3 0 0 1 .76 5.2 3.31 3.31 0 0 1 -3.68 5.16zm1.56-4.54-2.27-.78-1 2.79 2.27.78a1.48 1.48 0 0 0 1-2.79zm-1.66-2.54 1.71.6a1.13 1.13 0 1 0 .74-2.14l-1.74-.6z"/><path d="m138.45 21.26-2.05-1-.64-5-1.08-.53-1.85 3.75-1.75-.86 4.74-9.62 3.77 1.86a3.25 3.25 0 0 1 1.29 4.29 3.4 3.4 0 0 1 -3.11 1.85zm-.91-7.26a1.37 1.37 0 0 0 1.21-2.45l-2-1-1.23 2.45z"/><path d="m147.19 16.31-1.45 2.2 3.46 2.27-1 1.6-3.46-2.27-1.31 2 4 2.63-1 1.6-5.62-3.69 5.9-9 5.62 3.69-1 1.59z"/><path d="m161.58 38a5.48 5.48 0 1 1 5.5-5.46h-2a3.51 3.51 0 1 0 -3.54 3.46z"/><path d="m167.2 47.68-1.38-1.83 1.67-4.74-.72-1-3.34 2.52-1.18-1.56 8.58-6.47 2.53 3.4a3.25 3.25 0 0 1 -.78 4.42 3.4 3.4 0 0 1 -3.61.26zm2.45-6.88a1.38 1.38 0 0 0 2.18-1.65l-1.35-1.79-2.19 1.64z"/><path d="m169.59 51.62-1-1.65 9.15-5.64 1 1.65z"/><path d="m175.73 63.64-.9-1.89 1.33-1.47-2.16-4.57-2 .13-.91-1.92 11.6-.63.82 1.73zm1.82-4.88 3-3.41-4.56.24z"/><path d="m189.63 72.09-10.29 3.08-.58-1.92 5.67-7.35-7.22 2.16-.56-1.87 10.29-3.08.6 2-5.54 7.23 7.1-2.12z"/><path d="m180.81 83.79-.6-.17v.08a1.42 1.42 0 0 1 -.27 1.07 1.45 1.45 0 0 1 -2 .29 1.43 1.43 0 0 1 -.29-2 1.5 1.5 0 0 1 .92-.54l.11.73a.66.66 0 0 0 -.55.75.68.68 0 0 0 .76.59.69.69 0 0 0 .21-1.3l.13-.74 1.43.34zm2 3.25a5.48 5.48 0 1 1 7.67-1.13l-1.57-1.17a3.52 3.52 0 0 0 -3.34-5.59 3.52 3.52 0 0 0 -1.57 6.32z"/><path d="m181.61 100.13v-2.13l1.81-.78-.08-5.06-1.84-.7v-2.08l10.81 4.23v1.91zm3.68-3.69 4.18-1.84-4.24-1.67z"/><path d="m184.11 103.81a3.62 3.62 0 0 0 -1.43 2.31 1.72 1.72 0 0 0 .17 1.16 1.06 1.06 0 0 0 .72.5 1.1 1.1 0 0 0 .74-.2 2.39 2.39 0 0 0 .71-.67c.5-.64.95-1.59 1.69-2.43a3 3 0 0 1 2.45-1h.1a2.62 2.62 0 0 1 1.94 1.3 3.44 3.44 0 0 1 .39 2.2 4.38 4.38 0 0 1 -1.67 2.9l-1.21-1.56a2.4 2.4 0 0 0 .92-1.58 1.66 1.66 0 0 0 -.14-1 .75.75 0 0 0 -.51-.33.82.82 0 0 0 -.63.2 3.3 3.3 0 0 0 -.67.77 11.26 11.26 0 0 1 -1.88 2.5 3.23 3.23 0 0 1 -2.46.73 3 3 0 0 1 -2.19-1.36 3.73 3.73 0 0 1 -.45-2.41 5.58 5.58 0 0 1 2.2-3.66z"/><path d="m180.4 114.19a2.27 2.27 0 0 1 -1.78-2.42l.27.06a1.26 1.26 0 0 0 .6 1.2 1.08 1.08 0 0 1 0-.21 1.17 1.17 0 1 1 .91 1.38z"/><path d="m177.48 135.29a5.45 5.45 0 0 1 -2.81-2.74l-2.13.61.9-2.09.74-.21a5.51 5.51 0 0 1 3.4-5.68 5.41 5.41 0 0 1 4.19 0 5.48 5.48 0 0 1 -4.3 10.08zm-1.34-5 2.82-.81.48 1.71-2.84.82a3.61 3.61 0 1 0 -.06-3.42q-.07.14-.12.28a3.35 3.35 0 0 0 -.28 1.42z"/><path d="m175.38 149.11-5.21-3.26a4.7 4.7 0 0 1 5-7.95l5.21 3.26-1 1.64-5.17-3.23a2.74 2.74 0 1 0 -2.91 4.65l5.17 3.23z"/><path d="m158.58 152.86 1.34-1.61 1.89.59 3.25-3.89-.94-1.73 1.36-1.63 5.42 10.27-1.22 1.47zm5.2-.39 4.37 1.34-2.12-4z"/><path d="m154 157.11 2.5-2.22 7.13 8-2.5 2.22a5.37 5.37 0 0 1 -7.13-8zm5.84 6.63 1.06-.94-4.6-5.19-1.07.95a3.47 3.47 0 0 0 4.41 5.36l.19-.17z"/><path d="m141 167 1.89-1.29 4.65 1.9 1-.67-2.35-3.46 1.62-1.1 6 8.88-3.47 2.36a3.25 3.25 0 0 1 -4.37-1 3.4 3.4 0 0 1 -.08-3.62zm6.75 2.78a1.37 1.37 0 0 0 1.55 2.22l1.86-1.26-1.54-2.26z"/><path d="m136.94 169.15 1.7-.93 5.17 9.42-1.7.93z"/><path d="m134.32 173.86a3.62 3.62 0 0 0 -2.71 0 1.72 1.72 0 0 0 -.91.75 1.06 1.06 0 0 0 -.06.88 1.1 1.1 0 0 0 .55.53 2.4 2.4 0 0 0 .94.26c.81.1 1.86 0 3 .2a3 3 0 0 1 2.08 1.6v.09a2.62 2.62 0 0 1 -.12 2.34 3.44 3.44 0 0 1 -1.69 1.49 4.38 4.38 0 0 1 -3.34.06l.72-1.84a2.41 2.41 0 0 0 1.83 0 1.67 1.67 0 0 0 .76-.62.75.75 0 0 0 0-.6.82.82 0 0 0 -.5-.44 3.29 3.29 0 0 0 -1-.18 11.24 11.24 0 0 1 -3.11-.33 3.23 3.23 0 0 1 -1.88-1.74 3 3 0 0 1 0-2.58 3.73 3.73 0 0 1 1.83-1.62 5.58 5.58 0 0 1 4.27 0z"/><path d="m123.53 176a2.27 2.27 0 0 1 1.17-2.77l.09.26a1.26 1.26 0 0 0 -.72 1.13l.19-.09a1.17 1.17 0 1 1 -.71 1.49z"/><path d="m110.48 182.23 2.22-.35-.65-4.13 1.93-.3 1.67 10.61-4.15.65a3.29 3.29 0 0 1 -1-6.48zm.72 4.6 2.22-.35-.43-2.71-2.22.35a1.38 1.38 0 0 0 .43 2.71z"/><path d="m102.5 187.73-.1-2.64-4.14.16-.08-1.91 4.14-.16-.09-2.38-4.78.19-.08-1.91 6.72-.27.42 10.74-6.72.26-.07-1.9z"/><path d="m93 182a3.62 3.62 0 0 0 -2.38-1.31 1.72 1.72 0 0 0 -1.15.24 1.06 1.06 0 0 0 -.46.75 1.1 1.1 0 0 0 .24.73 2.39 2.39 0 0 0 .75.59c.67.47 1.64.86 2.51 1.56a3 3 0 0 1 1.09 2.44v.1a2.62 2.62 0 0 1 -1.2 2 3.44 3.44 0 0 1 -2.18.51 4.38 4.38 0 0 1 -3-1.51l1.5-1.29a2.4 2.4 0 0 0 1.63.83 1.67 1.67 0 0 0 1-.19.75.75 0 0 0 .31-.52.82.82 0 0 0 -.23-.62 3.29 3.29 0 0 0 -.81-.63 11.24 11.24 0 0 1 -2.6-1.75 3.23 3.23 0 0 1 -.86-2.41 3 3 0 0 1 1.25-2.26 3.74 3.74 0 0 1 2.38-.58 5.58 5.58 0 0 1 3.77 2z"/><path d="m75.08 176.21 2.05.42.37 1.94 5 1 1.08-1.65 2.08.43-6.52 9.65-1.87-.38zm2.8 4.39.89 4.49 2.56-3.78z"/><path d="m69.21 174.19 3.14 1.16-3.71 10.08-3.14-1.16a5.37 5.37 0 1 1 3.71-10.08zm-3.08 8.28 1.34.49 2.4-6.51-1.35-.45a3.47 3.47 0 0 0 -2.52 6.46l.14.05z"/><path d="m55.48 177.92 1.23-2.34-3.71-1.92.89-1.69 3.67 1.93 1.11-2.11-4.24-2.22.89-1.69 6 3.13-5 9.52-6-3.12.88-1.68z"/><path d="m45.28 174.2 5-7.41-4-2.68 1-1.49 5.59 3.77-6 8.91z"/><path d="m41.92 158a5.45 5.45 0 1 1 -4-1.34 5.45 5.45 0 0 1 4 1.34zm-5.92 6.79a3.5 3.5 0 0 0 5.78-2.86 3.43 3.43 0 0 0 -1.2-2.39 3.49 3.49 0 1 0 -4.58 5.25z"/><path d="m33.44 154.15a3.61 3.61 0 0 0 -.78-2.6 1.71 1.71 0 0 0 -1-.64 1.05 1.05 0 0 0 -.85.21 1.1 1.1 0 0 0 -.34.69 2.38 2.38 0 0 0 0 1c.15.8.57 1.77.71 2.87a3 3 0 0 1 -.89 2.47l-.07.06a2.62 2.62 0 0 1 -2.26.6 3.44 3.44 0 0 1 -1.96-1.16 4.38 4.38 0 0 1 -1-3.18l2 .13a2.4 2.4 0 0 0 .58 1.74 1.67 1.67 0 0 0 .83.54.75.75 0 0 0 .58-.16.82.82 0 0 0 .27-.61 3.29 3.29 0 0 0 -.13-1 11.24 11.24 0 0 1 -.64-3.06 3.23 3.23 0 0 1 1.08-2.32 3 3 0 0 1 2.43-.73 3.74 3.74 0 0 1 2.1 1.25 5.58 5.58 0 0 1 1.29 4.06z"/><path d="m17.48 142.51 2.28-1.32-2.06-3.59 1.66-1 2.07 3.59 2.06-1.19-2.39-4.1 1.66-1 3.36 5.83-9.31 5.37-3.36-5.83 1.64-.95z"/><path d="m7.93 126.64 8.46-2.89-1.54-4.53 1.7-.58 2.18 6.36-10.17 3.49z"/><path d="m15.4 114 .46 1.88-10.44 2.52-.42-1.88z"/><path d="m11.89 102a5.48 5.48 0 1 1 -7.68 1.07l1.56 1.18a3.53 3.53 0 1 0 4.94-.69zm2 3.27.6.17v-.08a1.43 1.43 0 0 1 .28-1.07 1.45 1.45 0 0 1 2-.28 1.42 1.42 0 0 1 .55 1 1.44 1.44 0 0 1 -.32 1 1.5 1.5 0 0 1 -.93.54l-.1-.73a.66.66 0 0 0 .56-.75.68.68 0 0 0 -.75-.6.69.69 0 0 0 -.58.78.68.68 0 0 0 .37.51l-.14.74-1.43-.34z"/><path d="m1.72 93.19a1.76 1.76 0 0 1 -.08.51c-.19.64-.19.65-.19.65a1.92 1.92 0 0 0 -.1.43c0 .31.16.49.52.62v.81c-1.15-.26-1.68-.73-1.67-1.48a2.51 2.51 0 0 1 .12-.61l.19-.64a1.2 1.2 0 0 0 .06-.39c0-.31-.19-.51-.58-.61v-.81c1.19.33 1.74.74 1.73 1.52zm11.61.89a5.45 5.45 0 1 1 -1.53-3.89 5.45 5.45 0 0 1 1.53 3.89zm-9-.15a3.54 3.54 0 0 0 5.92 2.65l.08-.08a3.43 3.43 0 0 0 1-2.5 3.5 3.5 0 1 0 -7-.07z"/><path d="m5.3 81.61 2.6.39.65-4.09 1.89.3-.64 4.11 2.36.37.74-4.69 1.89.3-1.05 6.64-10.61-1.71 1.05-6.64 1.87.3z"/><path d="m12.82 73.47a3.62 3.62 0 0 0 1.76-2.07 1.72 1.72 0 0 0 0-1.18 1.06 1.06 0 0 0 -.64-.6 1.1 1.1 0 0 0 -.76.09 2.4 2.4 0 0 0 -.8.56c-.59.56-1.17 1.44-2 2.16a3 3 0 0 1 -2.56.6h-.09a2.62 2.62 0 0 1 -1.73-1.6 3.44 3.44 0 0 1 -.07-2.24 4.38 4.38 0 0 1 2.07-2.62l1 1.72a2.41 2.41 0 0 0 -1.14 1.43 1.67 1.67 0 0 0 0 1 .75.75 0 0 0 .45.4.82.82 0 0 0 .58-.12 3.29 3.29 0 0 0 .78-.67 11.25 11.25 0 0 1 2.23-2.2 3.24 3.24 0 0 1 2.54-.36 3 3 0 0 1 2 1.67 3.73 3.73 0 0 1 .1 2.45 5.58 5.58 0 0 1 -2.71 3.3z"/><path d="m22.43 56.54-1.56 3-9.51-5 1.56-3a5.37 5.37 0 1 1 9.51 5zm-7.8-4.15-.63 1.26 6.14 3.24.66-1.26a3.47 3.47 0 0 0 -6.14-3.24z"/><path d="m20.53 42.44 2.16 1.56 2.39-3.39 1.56 1.1-2.39 3.39 2 1.38 2.8-4 1.56 1.1-3.88 5.49-8.83-6.14 3.88-5.49 1.55 1.09z"/><path d="m42.67 28.79a5.48 5.48 0 1 1 -5.27-5.68l-.08 2a3.51 3.51 0 1 0 3.38 3.63z"/><path d="m54.21 22.41-1.73 1.19-1.66-1.08-4.18 2.87.44 1.92-1.75 1.2-2.44-11.36 1.58-1.08zm-5.11-1-3.85-2.47 1 4.46z"/><path d="m55.76 18.22a3.62 3.62 0 0 0 2.71-.12 1.72 1.72 0 0 0 .86-.8 1.06 1.06 0 0 0 0-.88 1.1 1.1 0 0 0 -.58-.5 2.39 2.39 0 0 0 -1-.2c-.81-.06-1.85.12-3 0a3 3 0 0 1 -2.18-1.47v-.09a2.62 2.62 0 0 1 0-2.34 3.44 3.44 0 0 1 1.6-1.57 4.38 4.38 0 0 1 3.35-.25l-.61 1.88a2.4 2.4 0 0 0 -1.83.13 1.67 1.67 0 0 0 -.72.67.75.75 0 0 0 0 .6.81.81 0 0 0 .52.41 3.29 3.29 0 0 0 1 .12 11.22 11.22 0 0 1 3.12.19 3.23 3.23 0 0 1 2 1.62 3 3 0 0 1 .11 2.58 3.72 3.72 0 0 1 -1.73 1.73 5.58 5.58 0 0 1 -4.26.25z"/><path d="m74.11 13.78-2 .7-1.3-1.48-4.81 1.73-.07 2-2 .71.53-11.6 1.8-.64zm-4.68-2.3-3.08-3.37-.22 4.56z"/><path d="m78.23 13a1.17 1.17 0 1 1 .85-1.42 1.17 1.17 0 0 1 -.85 1.42z"/><path d="m84.23 11.83a1.16 1.16 0 1 1 1-1.32 1.16 1.16 0 0 1 -1 1.32z"/><path d="m90.3 11.1a1.16 1.16 0 1 1 1.06-1.25 1.16 1.16 0 0 1 -1.06 1.25z"/></g></svg>