<svg id="Layer_1" data-name="Layer 1" xmlns="http://www.w3.org/2000/svg" viewBox="0 0 192.32 189.81"><defs><style>.cls-1{fill:#a55532;}</style></defs><title>logo</title><path class="cls-1" d="M127.17,64.48V124h-11.6l-18.2-18.2L79.25,124H67.66V64.48L97.37,94.19ZM91.61,100,75.87,84.21v31.56Zm6-24-5.76-5.76,5.76-5.84,5.84,5.84ZM119,84.17,103.21,100l15.74,15.74Z" transform="translate(0.01 0)"/><path class="cls-1" d="M99.82,7.7a3.62,3.62,0,0,0,2.4,1.3,1.71,1.71,0,0,0,1.15-.26,1.06,1.06,0,0,0,.45-.76,1.11,1.11,0,0,0-.25-.73,2.4,2.4,0,0,0-.72-.65c-.67-.46-1.66-.83-2.55-1.51a3,3,0,0,1-1.14-2.37v-.1a2.62,2.62,0,0,1,1.16-2A3.44,3.44,0,0,1,102.48,0a4.38,4.38,0,0,1,3,1.45L104,2.77a2.4,2.4,0,0,0-1.65-.8,1.67,1.67,0,0,0-1,.21.75.75,0,0,0-.29.53.82.82,0,0,0,.25.61,3.31,3.31,0,0,0,.82.62,11.21,11.21,0,0,1,2.63,1.69,3.23,3.23,0,0,1,.91,2.4,3,3,0,0,1-1.2,2.28,3.73,3.73,0,0,1-2.37.63A5.58,5.58,0,0,1,98.35,9Z" transform="translate(0.01 0)"/><path class="cls-1" d="M113.13,12.28a5.45,5.45,0,1,1,4.09-.86A5.45,5.45,0,0,1,113.13,12.28Zm1.63-8.81a3.49,3.49,0,0,0-3.52,5.4v0a3.43,3.43,0,0,0,2.24,1.45,3.49,3.49,0,1,0,1.26-6.87Z" transform="translate(0.01 0)"/><path class="cls-1" d="M125.39,15.48l-4.13-1.42,3.5-10.16,3.55,1.22a3,3,0,0,1,.76,5.2,3.31,3.31,0,0,1-3.68,5.16Zm1.56-4.54-2.27-.78-1,2.79,2.27.78a1.48,1.48,0,0,0,1-2.79ZM125.29,8.4,127,9a1.13,1.13,0,1,0,.74-2.14h0L126,6.26Z" transform="translate(0.01 0)"/><path class="cls-1" d="M138.45,21.26l-2.05-1-.64-5-1.08-.53-1.85,3.75-1.75-.86L135.82,8l3.77,1.86a3.25,3.25,0,0,1,1.29,4.29A3.4,3.4,0,0,1,137.77,16ZM137.54,14a1.37,1.37,0,0,0,1.21-2.45l-2-1L135.52,13Z" transform="translate(0.01 0)"/><path class="cls-1" d="M147.19,16.31l-1.45,2.2,3.46,2.27-1,1.6-3.46-2.27-1.31,2,4,2.63-1,1.6-5.62-3.69,5.9-9,5.62,3.69-1,1.59Z" transform="translate(0.01 0)"/><path class="cls-1" d="M161.58,38a5.48,5.48,0,1,1,5.5-5.46h-2A3.51,3.51,0,1,0,161.54,36Z" transform="translate(0.01 0)"/><path class="cls-1" d="M167.2,47.68l-1.38-1.83,1.67-4.74-.72-1-3.34,2.52-1.18-1.56,8.58-6.47,2.53,3.4a3.25,3.25,0,0,1-.78,4.42,3.4,3.4,0,0,1-3.61.26Zm2.45-6.88a1.38,1.38,0,0,0,2.18-1.65l-1.35-1.79L168.29,39Z" transform="translate(0.01 0)"/><path class="cls-1" d="M169.59,51.62l-1-1.65,9.15-5.64,1,1.65Z" transform="translate(0.01 0)"/><path class="cls-1" d="M175.73,63.64l-.9-1.89,1.33-1.47L174,55.71l-2,.13-.91-1.92,11.6-.63.82,1.73Zm1.82-4.88,3-3.41-4.56.24Z" transform="translate(0.01 0)"/><path class="cls-1" d="M189.63,72.09l-10.29,3.08-.58-1.92,5.67-7.35-7.22,2.16-.56-1.87,10.29-3.08.6,2L182,72.34l7.1-2.12Z" transform="translate(0.01 0)"/><path class="cls-1" d="M180.81,83.79l-.6-.17v.08a1.42,1.42,0,0,1-.27,1.07,1.45,1.45,0,0,1-2,.29,1.43,1.43,0,0,1-.29-2,1.5,1.5,0,0,1,.92-.54l.11.73a.66.66,0,0,0-.55.75h0a.68.68,0,0,0,.76.59h0a.69.69,0,0,0,.21-1.3l.13-.74,1.43.34Zm2,3.25a5.48,5.48,0,1,1,7.67-1.13h0l-1.57-1.17a3.52,3.52,0,0,0-3.34-5.59A3.52,3.52,0,0,0,184,85.47Z" transform="translate(0.01 0)"/><path class="cls-1" d="M181.61,100.13V98l1.81-.78-.08-5.06-1.84-.7V89.38l10.81,4.23v1.91Zm3.68-3.69,4.18-1.84-4.24-1.67Z" transform="translate(0.01 0)"/><path class="cls-1" d="M184.11,103.81a3.62,3.62,0,0,0-1.43,2.31,1.72,1.72,0,0,0,.17,1.16,1.06,1.06,0,0,0,.72.5,1.1,1.1,0,0,0,.74-.2,2.39,2.39,0,0,0,.71-.67c.5-.64.95-1.59,1.69-2.43a3,3,0,0,1,2.45-1h.1a2.62,2.62,0,0,1,1.94,1.3,3.44,3.44,0,0,1,.39,2.2,4.38,4.38,0,0,1-1.67,2.9l-1.21-1.56a2.4,2.4,0,0,0,.92-1.58,1.66,1.66,0,0,0-.14-1,.75.75,0,0,0-.51-.33.82.82,0,0,0-.63.2,3.3,3.3,0,0,0-.67.77,11.26,11.26,0,0,1-1.88,2.5,3.23,3.23,0,0,1-2.46.73,3,3,0,0,1-2.19-1.36,3.73,3.73,0,0,1-.45-2.41,5.58,5.58,0,0,1,2.2-3.66Z" transform="translate(0.01 0)"/><path class="cls-1" d="M180.4,114.19a2.27,2.27,0,0,1-1.78-2.42l.27.06a1.26,1.26,0,0,0,.6,1.2,1.08,1.08,0,0,1,0-.21,1.17,1.17,0,1,1,.91,1.38h0Z" transform="translate(0.01 0)"/><path class="cls-1" d="M177.48,135.29a5.45,5.45,0,0,1-2.81-2.74l-2.13.61.9-2.09.74-.21a5.51,5.51,0,0,1,3.4-5.68,5.41,5.41,0,0,1,4.19,0,5.48,5.48,0,0,1-4.3,10.08Zm-1.34-5,2.82-.81.48,1.71-2.84.82a3.61,3.61,0,1,0-.06-3.42q-.07.14-.12.28A3.35,3.35,0,0,0,176.14,130.29Z" transform="translate(0.01 0)"/><path class="cls-1" d="M175.38,149.11l-5.21-3.26a4.7,4.7,0,0,1,5-7.95l5.21,3.26-1,1.64-5.17-3.23a2.74,2.74,0,1,0-2.91,4.65l5.17,3.23Z" transform="translate(0.01 0)"/><path class="cls-1" d="M158.58,152.86l1.34-1.61,1.89.59,3.25-3.89-.94-1.73,1.36-1.63,5.42,10.27-1.22,1.47Zm5.2-.39,4.37,1.34-2.12-4Z" transform="translate(0.01 0)"/><path class="cls-1" d="M154,157.11l2.5-2.22,7.13,8-2.5,2.22a5.37,5.37,0,0,1-7.13-8Zm5.84,6.63,1.06-.94-4.6-5.19-1.07.95a3.47,3.47,0,0,0,4.41,5.36l.19-.17Z" transform="translate(0.01 0)"/><path class="cls-1" d="M141,167l1.89-1.29,4.65,1.9,1-.67-2.35-3.46,1.62-1.1,6,8.88-3.47,2.36a3.25,3.25,0,0,1-4.37-1,3.4,3.4,0,0,1-.08-3.62Zm6.75,2.78A1.37,1.37,0,0,0,149.3,172l1.86-1.26-1.54-2.26Z" transform="translate(0.01 0)"/><path class="cls-1" d="M136.94,169.15l1.7-.93,5.17,9.42-1.7.93Z" transform="translate(0.01 0)"/><path class="cls-1" d="M134.32,173.86a3.62,3.62,0,0,0-2.71,0,1.72,1.72,0,0,0-.91.75,1.06,1.06,0,0,0-.06.88,1.1,1.1,0,0,0,.55.53,2.4,2.4,0,0,0,.94.26c.81.1,1.86,0,3,.2a3,3,0,0,1,2.08,1.6v.09a2.62,2.62,0,0,1-.12,2.34A3.44,3.44,0,0,1,135.4,182a4.38,4.38,0,0,1-3.34.06l.72-1.84a2.41,2.41,0,0,0,1.83,0,1.67,1.67,0,0,0,.76-.62.75.75,0,0,0,0-.6.82.82,0,0,0-.5-.44,3.29,3.29,0,0,0-1-.18,11.24,11.24,0,0,1-3.11-.33,3.23,3.23,0,0,1-1.88-1.74,3,3,0,0,1,0-2.58,3.73,3.73,0,0,1,1.83-1.62,5.58,5.58,0,0,1,4.27,0Z" transform="translate(0.01 0)"/><path class="cls-1" d="M123.53,176a2.27,2.27,0,0,1,1.17-2.77l.09.26a1.26,1.26,0,0,0-.72,1.13l.19-.09a1.17,1.17,0,1,1-.71,1.49v0Z" transform="translate(0.01 0)"/><path class="cls-1" d="M110.48,182.23l2.22-.35-.65-4.13,1.93-.3,1.67,10.61-4.15.65a3.29,3.29,0,0,1-1-6.48Zm.72,4.6,2.22-.35-.43-2.71-2.22.35a1.38,1.38,0,0,0,.43,2.71Z" transform="translate(0.01 0)"/><path class="cls-1" d="M102.5,187.73l-.1-2.64-4.14.16-.08-1.91,4.14-.16-.09-2.38-4.78.19-.08-1.91,6.72-.27.42,10.74-6.72.26-.07-1.9Z" transform="translate(0.01 0)"/><path class="cls-1" d="M93,182a3.62,3.62,0,0,0-2.38-1.31,1.72,1.72,0,0,0-1.15.24,1.06,1.06,0,0,0-.46.75,1.1,1.1,0,0,0,.24.73A2.39,2.39,0,0,0,90,183c.67.47,1.64.86,2.51,1.56A3,3,0,0,1,93.6,187v.1a2.62,2.62,0,0,1-1.2,2,3.44,3.44,0,0,1-2.18.51,4.38,4.38,0,0,1-3-1.51l1.5-1.29a2.4,2.4,0,0,0,1.63.83,1.67,1.67,0,0,0,1-.19.75.75,0,0,0,.31-.52.82.82,0,0,0-.23-.62,3.29,3.29,0,0,0-.81-.63,11.24,11.24,0,0,1-2.6-1.75,3.23,3.23,0,0,1-.86-2.41,3,3,0,0,1,1.25-2.26,3.74,3.74,0,0,1,2.38-.58,5.58,5.58,0,0,1,3.77,2Z" transform="translate(0.01 0)"/><path class="cls-1" d="M75.08,176.21l2.05.42.37,1.94,5,1,1.08-1.65,2.08.43L79.14,188l-1.87-.38Zm2.8,4.39.89,4.49,2.56-3.78Z" transform="translate(0.01 0)"/><path class="cls-1" d="M69.21,174.19l3.14,1.16-3.71,10.08-3.14-1.16a5.37,5.37,0,1,1,3.71-10.08Zm-3.08,8.28,1.34.49,2.4-6.51L68.52,176A3.47,3.47,0,0,0,66,182.46l.14.05Z" transform="translate(0.01 0)"/><path class="cls-1" d="M55.48,177.92l1.23-2.34L53,173.66l.89-1.69,3.67,1.93,1.11-2.11-4.24-2.22.89-1.69,6,3.13-5,9.52-6-3.12.88-1.68Z" transform="translate(0.01 0)"/><path class="cls-1" d="M45.28,174.2l5-7.41-4-2.68,1-1.49,5.59,3.77-6,8.91Z" transform="translate(0.01 0)"/><path class="cls-1" d="M41.92,158a5.45,5.45,0,1,1-4-1.34A5.45,5.45,0,0,1,41.92,158ZM36,164.79a3.5,3.5,0,0,0,5.78-2.86v0a3.43,3.43,0,0,0-1.2-2.39A3.49,3.49,0,1,0,36,164.79Z" transform="translate(0.01 0)"/><path class="cls-1" d="M33.44,154.15a3.61,3.61,0,0,0-.78-2.6,1.71,1.71,0,0,0-1-.64,1.05,1.05,0,0,0-.85.21,1.1,1.1,0,0,0-.34.69,2.38,2.38,0,0,0,0,1c.15.8.57,1.77.71,2.87a3,3,0,0,1-.89,2.47l-.07.06a2.62,2.62,0,0,1-2.26.6A3.44,3.44,0,0,1,26,157.65a4.38,4.38,0,0,1-1-3.18l2,.13a2.4,2.4,0,0,0,.58,1.74,1.67,1.67,0,0,0,.83.54.75.75,0,0,0,.58-.16.82.82,0,0,0,.27-.61,3.29,3.29,0,0,0-.13-1,11.24,11.24,0,0,1-.64-3.06,3.23,3.23,0,0,1,1.08-2.32A3,3,0,0,1,32,149a3.74,3.74,0,0,1,2.1,1.25,5.58,5.58,0,0,1,1.29,4.06Z" transform="translate(0.01 0)"/><path class="cls-1" d="M17.48,142.51l2.28-1.32L17.7,137.6l1.66-1,2.07,3.59L23.49,139l-2.39-4.1,1.66-1,3.36,5.83-9.31,5.37-3.36-5.83,1.64-.95Z" transform="translate(0.01 0)"/><path class="cls-1" d="M7.93,126.64l8.46-2.89-1.54-4.53,1.7-.58L18.73,125,8.56,128.49Z" transform="translate(0.01 0)"/><path class="cls-1" d="M15.4,114l.46,1.88L5.42,118.4,5,116.52Z" transform="translate(0.01 0)"/><path class="cls-1" d="M11.89,102a5.48,5.48,0,1,1-7.68,1.07h0l1.56,1.18a3.53,3.53,0,1,0,4.94-.69Zm2,3.27.6.17v-.08a1.43,1.43,0,0,1,.28-1.07,1.45,1.45,0,0,1,2-.28,1.42,1.42,0,0,1,.55,1,1.44,1.44,0,0,1-.32,1,1.5,1.5,0,0,1-.93.54l-.1-.73a.66.66,0,0,0,.56-.75h0a.68.68,0,0,0-.75-.6h0a.69.69,0,0,0-.58.78.68.68,0,0,0,.37.51l-.14.74L14,106.16Z" transform="translate(0.01 0)"/><path class="cls-1" d="M1.72,93.19a1.76,1.76,0,0,1-.08.51c-.19.64-.19.65-.19.65a1.92,1.92,0,0,0-.1.43c0,.31.16.49.52.62v.81C.72,95.95.19,95.48.2,94.73a2.51,2.51,0,0,1,.12-.61l.19-.64a1.2,1.2,0,0,0,.06-.39c0-.31-.19-.51-.58-.61v-.81C1.18,92,1.73,92.41,1.72,93.19Zm11.61.89a5.45,5.45,0,1,1-1.53-3.89,5.45,5.45,0,0,1,1.53,3.89Zm-9-.15a3.54,3.54,0,0,0,5.92,2.65l.08-.08a3.43,3.43,0,0,0,1-2.5,3.5,3.5,0,1,0-7-.07Z" transform="translate(0.01 0)"/><path class="cls-1" d="M5.3,81.61,7.9,82l.65-4.09,1.89.3L9.8,82.32l2.36.37L12.9,78l1.89.3-1.05,6.64L3.13,83.23l1.05-6.64,1.87.3Z" transform="translate(0.01 0)"/><path class="cls-1" d="M12.82,73.47a3.62,3.62,0,0,0,1.76-2.07,1.72,1.72,0,0,0,0-1.18,1.06,1.06,0,0,0-.64-.6,1.1,1.1,0,0,0-.76.09,2.4,2.4,0,0,0-.8.56c-.59.56-1.17,1.44-2,2.16a3,3,0,0,1-2.56.6H7.73A2.62,2.62,0,0,1,6,71.43a3.44,3.44,0,0,1-.07-2.24A4.38,4.38,0,0,1,8,66.57l1,1.72a2.41,2.41,0,0,0-1.14,1.43,1.67,1.67,0,0,0,0,1,.75.75,0,0,0,.45.4A.82.82,0,0,0,8.89,71a3.29,3.29,0,0,0,.78-.67,11.25,11.25,0,0,1,2.23-2.2,3.24,3.24,0,0,1,2.54-.36,3,3,0,0,1,2,1.67,3.73,3.73,0,0,1,.1,2.45,5.58,5.58,0,0,1-2.71,3.3Z" transform="translate(0.01 0)"/><path class="cls-1" d="M22.43,56.54l-1.56,3-9.51-5,1.56-3a5.37,5.37,0,1,1,9.51,5Zm-7.8-4.15L14,53.65l6.14,3.24.66-1.26a3.47,3.47,0,0,0-6.14-3.24Z" transform="translate(0.01 0)"/><path class="cls-1" d="M20.53,42.44,22.69,44l2.39-3.39,1.56,1.1L24.25,45.1l2,1.38,2.8-4,1.56,1.1-3.88,5.49L17.9,42.93l3.88-5.49,1.55,1.09Z" transform="translate(0.01 0)"/><path class="cls-1" d="M42.67,28.79a5.48,5.48,0,1,1-5.27-5.68h0l-.08,2a3.51,3.51,0,1,0,3.38,3.63Z" transform="translate(0.01 0)"/><path class="cls-1" d="M54.21,22.41,52.48,23.6l-1.66-1.08-4.18,2.87.44,1.92-1.75,1.2L42.89,17.15l1.58-1.08Zm-5.11-1-3.85-2.47,1,4.46Z" transform="translate(0.01 0)"/><path class="cls-1" d="M55.76,18.22a3.62,3.62,0,0,0,2.71-.12,1.72,1.72,0,0,0,.86-.8,1.06,1.06,0,0,0,0-.88,1.1,1.1,0,0,0-.58-.5,2.39,2.39,0,0,0-1-.2c-.81-.06-1.85.12-3,0a3,3,0,0,1-2.18-1.47v-.09a2.62,2.62,0,0,1,0-2.34,3.44,3.44,0,0,1,1.6-1.57A4.38,4.38,0,0,1,57.52,10l-.61,1.88a2.4,2.4,0,0,0-1.83.13,1.67,1.67,0,0,0-.72.67.75.75,0,0,0,0,.6.81.81,0,0,0,.52.41,3.29,3.29,0,0,0,1,.12A11.22,11.22,0,0,1,59,14a3.23,3.23,0,0,1,2,1.62,3,3,0,0,1,.11,2.58,3.72,3.72,0,0,1-1.73,1.73,5.58,5.58,0,0,1-4.26.25Z" transform="translate(0.01 0)"/><path class="cls-1" d="M74.11,13.78l-2,.7L70.81,13,66,14.73l-.07,2-2,.71.53-11.6,1.8-.64Zm-4.68-2.3L66.35,8.11l-.22,4.56Z" transform="translate(0.01 0)"/><path class="cls-1" d="M78.23,13a1.17,1.17,0,1,1,.85-1.42v0A1.17,1.17,0,0,1,78.23,13Z" transform="translate(0.01 0)"/><path class="cls-1" d="M84.23,11.83a1.16,1.16,0,1,1,1-1.32,1.16,1.16,0,0,1-1,1.32Z" transform="translate(0.01 0)"/><path class="cls-1" d="M90.3,11.1a1.16,1.16,0,1,1,1.06-1.25h0A1.16,1.16,0,0,1,90.3,11.1Z" transform="translate(0.01 0)"/></svg>