<svg id="Camada_1" data-name="Camada 1" xmlns="http://www.w3.org/2000/svg" viewBox="0 0 31.03 43.98"><defs><style>.cls-1{fill:#39c}</style></defs><title>19_datas5</title><path class="cls-1" d="M20.15 43.81c5.26 1.38 6-6.42 6-6.42l-7.35-1.54c-1.18 2.96-2.08 7.07 1.35 7.96zm6.33-30.69c-1.21-.42-5.79-1.5-7.63 6.45-1.34 5.78.75 12.71.75 12.71l7.4 1.56s3.1-5.38 3.63-8.08c.81-4.04.76-10.93-4.15-12.64zM3.31 24.32s-.08 7.83 5.29 7c3.5-.54 3-4.72 2.18-7.77zM5.57.14C.49 1.34-.28 8.18.07 12.28c.24 2.72 2.75 8.41 2.75 8.41l7.55-.78s2.82-6.68 2.09-12.56C11.48-.75 6.81-.15 5.57.14z"/></svg>