<svg id="Capa_1" data-name="Capa 1" xmlns="http://www.w3.org/2000/svg" viewBox="0 0 510 510"><defs><style>.cls-1{fill:#39c}</style></defs><title>16_datas2</title><path class="cls-1" d="M255 0C114.75 0 0 114.75 0 255s114.75 255 255 255 255-114.75 255-255S395.25 0 255 0zm-25.5 456.45C130.05 443.7 51 357 51 255c0-15.3 2.55-30.6 5.1-45.9l122.4 122.4V357a51.15 51.15 0 0 0 51 51zm176-63.75C397.8 372.3 380 357 357 357h-25.5v-76.5c0-15.3-10.2-25.5-25.5-25.5H153v-51h51c15.3 0 25.5-10.2 25.5-25.5v-51h51a51.15 51.15 0 0 0 51-51V66.3C405.45 96.9 459 170.85 459 255c0 53.55-20.4 102-53.55 137.7z" id="public"/></svg>