<svg id="Camada_1" data-name="Camada 1" xmlns="http://www.w3.org/2000/svg" viewBox="0 0 34.52 44.86"><defs><style>.cls-1{fill:#39c}</style></defs><title>18_datas4</title><path class="cls-1" d="M10.33 12a17.11 17.11 0 0 1 2.09-5 25.56 25.56 0 0 1 3.08-3.81A28.9 28.9 0 0 1 18 .85q.74-.56 1.19-.85a28.42 28.42 0 0 0-1.69 9.29 12.84 12.84 0 0 0 1.5 6.34 8.81 8.81 0 0 0 4.19 3.61 4.8 4.8 0 0 0 1.15.33q2.47.18 1.11-5.56A24.29 24.29 0 0 0 24 9.35a24.85 24.85 0 0 1 8.56 10.05 19 19 0 0 1 1.54 12.33 16.4 16.4 0 0 1-3.91 7.6 14.33 14.33 0 0 1-3 2.31 27.82 27.82 0 0 1-3 1.6q-1.18.51-3.16 1.23a10.59 10.59 0 0 1-1.46.29q-.63.07-1.06.09a1 1 0 0 1-.68-.18 4.13 4.13 0 0 1-.38-.34.69.69 0 0 1-.09-.56c0-.28.07-.51.1-.69a4.4 4.4 0 0 1 .31-.85l.42-.94c.11-.24.27-.59.51-1q.76-1.59 1.3-2.9a10.86 10.86 0 0 0 .71-2.51 10.75 10.75 0 0 0-.9-6.64 24.2 24.2 0 0 0-4.24-5.92q.63 1.36.43 5.68a18.63 18.63 0 0 1-1.36 6.66 21.69 21.69 0 0 1-1.22 2.18 18.27 18.27 0 0 1-1.7 2.16 9.94 9.94 0 0 1-2 1.79 5.37 5.37 0 0 1-2.16.85 3 3 0 0 1-2.22-.57 10.84 10.84 0 0 1-3.64-3.91 13.77 13.77 0 0 1-1.53-4.31A14.29 14.29 0 0 1 0 30.58a23.36 23.36 0 0 1 .26-3.07 11.22 11.22 0 0 1 1.36-3.86A14.42 14.42 0 0 1 4.52 20a5.74 5.74 0 0 0-.37 2.71 14.71 14.71 0 0 0 .52 2.94 4.35 4.35 0 0 0 1.41 2.22 2.45 2.45 0 0 0 2.33.47 3.37 3.37 0 0 0 1.08-.43 2.31 2.31 0 0 0 .73-.74 8.12 8.12 0 0 0 .47-.87 2.94 2.94 0 0 0 .21-1.14v-1.21a8.63 8.63 0 0 0-.12-1.42c-.09-.63-.16-1.1-.21-1.43s-.14-.84-.28-1.55-.2-1.21-.29-1.55a13.87 13.87 0 0 1 .33-6z"/></svg>