<svg id="Layer_1" data-name="Layer 1" xmlns="http://www.w3.org/2000/svg" viewBox="0 0 386.64 200.38"><defs><style>.cls-1{fill:none}.cls-2{fill:#50afcc}.cls-3{fill:#7c7c7c}.cls-4,.cls-5{fill:#0060a8;fill-rule:evenodd}.cls-5{fill:#db9600}</style></defs><title>2_logo</title><path class="cls-1" d="M365.48 177.46a4 4 0 0 0 1.74 3.39 1.91 1.91 0 0 0 2.11-.42 1.3 1.3 0 0 0 .31-1.84c-.52-1.07-1-2.17-1.45-3.21-1.88.34-2.57.91-2.71 2.08zM331.33 187.31a2.26 2.26 0 0 0-2.39 2.42c0 1.79 1.06 3.1 2.47 3.08a2.19 2.19 0 0 0 2.29-2.3c.03-1.76-1.02-3.16-2.37-3.2zM272.33 192.68l-.35 4.44c1.78.64 2.86.44 3.55-.59a3.58 3.58 0 0 0-.05-3.79c-.7-.82-1.62-.85-3.15-.06zM301.52 195.53c-1.7.06-2.43 1-1.8 2.19a1.68 1.68 0 0 0 1.18.68c.62.07.86-.43.81-1s-.13-1.26-.19-1.87zM380 173.84a.86.86 0 0 0-.37.41 1.32 1.32 0 0 0 0 .87c.12.21.58.44.75.36a3.76 3.76 0 0 0 1.47-1c.19-.26-.1-.87-.22-1.64-.79.47-1.21.72-1.63 1zM286.93 192c-1.06 0-1.57.6-1.62 1.8h2.91c.08-1.1-.22-1.8-1.29-1.8z"/><path class="cls-2" d="M327.23 164.94l2.05 6.66c.72-.21 1.27-.34 1.8-.52l12.72-4.34a39.84 39.84 0 0 0 4-1.43c5.8-2.71 11.56-5.5 17.35-8.23a35.54 35.54 0 0 0 9.61-6.61c12.67-12.2 14.73-31.6 7.17-45.91-2.54-4.81-5.85-9.09-10.87-11.6a20.1 20.1 0 0 1-6.64-5.71 14.21 14.21 0 0 1-2.85-10.31c.23-3.06 2.7-4.36 5.49-3.09.26.12.54.21 1.12.43L357.7 45.59c-4.09-.67-6.84-.06-10.46 1.31-3 1.13-5.59 2.82-7 5.83-1 2.19-2.09 4.39-3 6.65s-1.47 4.37-2.18 6.56c-1.78 5.49-2.68 11.07-1.68 16.84a7 7 0 0 1 0 1.18 16.06 16.06 0 0 1-1.08-2.9q-7-24-14-47.93c-.59-2-.66-2.06-2.62-1.88l-21.43 2-5.09.47c0 .21-.11.34-.09.45.12.5.25 1 .4 1.48a126.67 126.67 0 0 1 5.1 33.13 139.41 139.41 0 0 1-3 32.06c-2.46 11.74-6.36 23-12.72 33.19-3.07 5-6.37 9.76-9.55 14.64q-6.6 10.15-13.18 20.31c-.47.72-1 1.37-1.78 2.34-9.26-28.17-18.44-56-27.56-83.77 1.6-1.2 3-2.25 4.38-3.26 1.19-.85 2.42-1.64 3.63-2.45a6.33 6.33 0 0 1 .84-.89c2.82-2.12 5.66-4.19 8.47-6.32 4.33-3.29 8.73-6.51 12.93-10a39 39 0 0 0 8.9-10.76c4.18-7.23 5.42-15.13 5.26-23.31a25.36 25.36 0 0 0-7.68-17.71 3.26 3.26 0 0 0-1.61-.91 51.72 51.72 0 0 0-12.8-1 82.5 82.5 0 0 0-19.1 3.33c-5 1.54-10.18 2.69-14.74 5.43-6.75 4.07-13.45 8.21-20.19 12.28a3 3 0 0 0-1.46 2.51c-.43 3.69-.9 7.37-1.37 11.06q-1.67 13-3.35 25.91l-3.28 25.34c-1.09 8.45-2.13 16.9-3.25 25.34-.73 5.46-1.55 10.9-2.36 16.34-.19 1.25-.5 2.48-.76 3.71l27.27 16 3.9-28.58a3 3 0 0 1 .84 1.42c3.1 9.42 6.23 18.84 9.29 28.28a3.21 3.21 0 0 0 2.39 2.37c9.8 3 19.57 6 29.35 9.07.57.18 1.13.42 1.67.62-.42 1.23-1.65 1.77-1.89 3l31.18 4.63c.29-.4.49-.64.66-.91 1.29-2 2.64-3.94 3.85-6a3.12 3.12 0 0 1 2.85-1.83 33.14 33.14 0 0 0 4-.61l28.31-4.16c1.41-.23 2.86-.37 4.32-.55zm10.42-67c.31.55.62 1.1.95 1.63a49.18 49.18 0 0 0 15.28 16.2c.8.52 1.65 1 2.5 1.43 5.12 2.74 7.57 6.89 7.33 12.82a46.45 46.45 0 0 1-4.57 19.26c-1.2 2.4-2.35 4.83-3.53 7.25-.19.39-.45.74-.87 1.41L337.27 98zm-117.59-42a3.1 3.1 0 0 1-.68.19c.09-.89.17-1.7.26-2.5.37-3.24.77-6.47 1.11-9.72a2.12 2.12 0 0 1 1-1.73c5-3.33 10.25-6.28 16.32-7.28 1.44-.24 2.89-.42 4.56-.66 0 3.13-.8 5.69-2.81 7.61a64.79 64.79 0 0 1-7.61 6.39c-3.93 2.67-8.09 5.09-12.15 7.63zm83.2 83.87c5.23-13.41 9.11-27 10.5-41.29 2.41 12.69 4.51 25.44 6.77 38.43zM234.77 81.81l-.05.06zM74.81 160.07c0-.9-.06-1.66-.14-2.41q-1.57-15-3.15-30c-1.47-13.88-3-27.76-4.42-41.64-1.23-11.78-2.38-23.57-3.63-35.35-.13-1.21 0-2.55-.85-3.72-8.08 2.55-16.27 4.55-24.26 7.38.23 2.51.43 4.81.66 7.09s.48 4.46.72 6.68l.75 6.9.74 6.87q.37 3.43.77 6.88l.71 6.69c.24 2.29.54 4.58.71 6.88s.68 4.43.38 6.68a10 10 0 0 1-1.38-1.92A126.27 126.27 0 0 1 34.09 90c-1.86-4.7-3.62-9.45-5.58-14.1-1.39-3.29-3-6.47-4.7-10-2.79 2.23-5.37 4-7.66 6.16a38.36 38.36 0 0 0-9.36 13A96.32 96.32 0 0 0 2 100a60.38 60.38 0 0 0-1.82 9.4 44.17 44.17 0 0 0 2.57 18.49 51.51 51.51 0 0 0 12.1 20 194.33 194.33 0 0 0 19.6 17 4.37 4.37 0 0 0 .85.34c-.27-1.53-.49-2.85-.73-4.16l-4.26-22.83a13.38 13.38 0 0 1-.1-1.7 5.19 5.19 0 0 1 1.38 1.78c3.52 7 7.07 13.93 10.51 20.94a2.81 2.81 0 0 0 3.07 1.86c8.13-.33 16.26-.53 24.39-.79 1.67-.04 3.38-.16 5.25-.26zM121.09 89.52c-6-11.69-11.9-23.4-17.87-35.09-1.73-3.38-.94-2.82-4.42-2.79-8.9.08-17.81.33-26.71.5h-6l12 114.5 24.44-6.55-.38-5.67c7.06-2.19 14.21-3.51 21.24-5.4l2.62 4.79 24.67-6.62c-.81-1.57-1.49-2.87-2.16-4.17q-13.72-26.75-27.43-53.5zm-20.69 46.29l-4-38.06h.37l18.57 36.52zM234.77 81.81l-.05.06z"/><path class="cls-2" d="M235.17 89.38q1.49 12.88 3 25.76a47.78 47.78 0 0 0 2.21 10.68c4.4 12.3 18.55 16 27.84 12.22a27.8 27.8 0 0 0 14.14-12.73c3.11-5.69 5.27-11.69 4.84-18.33q-.3-4.7-.71-9.39-.9-10.43-1.85-20.86c-.17-1.89-.36-3.78-.57-5.91l-20.48 4.69v4.83q.35 13.16.73 26.32a13.16 13.16 0 0 1 0 1.92 4.08 4.08 0 0 1-3.44 3.64 4 4 0 0 1-4.31-2.49 8.71 8.71 0 0 1-.62-2.21c-1.09-8.25-2.15-16.51-3.23-24.76-.2-1.49-.46-3-.69-4.5-.69.11-1.14.16-1.57.26-4.62 1.06-9.23 2.13-13.85 3.17a13.26 13.26 0 0 1-1.82.17 6.4 6.4 0 0 0-.24 1.59c.14 1.99.39 3.96.62 5.93zM163.86 110.07c-1.77-3.19-3.59-6.36-5.38-9.54A224.64 224.64 0 0 0 145 78.81c-2.21-3.06-4.17-6.3-6.26-9.45a8.32 8.32 0 0 1-.58-8.42 7.3 7.3 0 0 1 2.47-3.06 12.17 12.17 0 0 1 6.48-2.13 21.35 21.35 0 0 0 2.6-.36c-1.23-5.08-2.4-10-3.63-14.87a1.87 1.87 0 0 0-1-1 21.08 21.08 0 0 0-12.58-1.71 22.43 22.43 0 0 0-16.81 32.05A138.15 138.15 0 0 0 126 87.67q5.38 7.83 10.43 15.9c2.54 4.07 4.83 8.3 7.19 12.49a52.53 52.53 0 0 1 5.07 10.75c1.06 3.57 2.06 7.16 1 10.93-.31 1.1-.63 2.19-.93 3.24l22.8-2.17c-.23-2.14-.45-4.24-.69-6.32a59.73 59.73 0 0 0-7.01-22.42z"/><path class="cls-3" d="M365.44 169l1.64 3.92c-.72.27-1.26.44-1.78.68a5.38 5.38 0 0 0-2.14 8.47 4.4 4.4 0 0 0 6.83.5 11.61 11.61 0 0 0 .78-1c1.62.63 2.6-.53 3.9-1.09l-6-13zm3.89 11.44a1.91 1.91 0 0 1-2.11.42 4 4 0 0 1-1.74-3.39c.13-1.18.83-1.74 2.71-2.08.47 1 .93 2.14 1.45 3.21a1.3 1.3 0 0 1-.31 1.83zM273.56 189.86l-1.05.27.22-4.7c-.55-.11-1-.22-1.41-.27s-1.14-.08-2-.14l-1.15 13.83a36.34 36.34 0 0 0 3.83 1.05 8 8 0 0 0 5.06-.62 5.18 5.18 0 0 0 2.25-6.62 4.57 4.57 0 0 0-5.75-2.8zm2 6.66c-.69 1-1.77 1.23-3.55.59l.35-4.44c1.53-.79 2.44-.76 3.15.05a3.58 3.58 0 0 1 .02 3.81zM333 184.87a7.41 7.41 0 0 0-4.65.74 5 5 0 0 0-2.9 5.86c.54 2.46 2.48 3.92 5.28 4.15a28.1 28.1 0 0 0 3.94-1.33 4.69 4.69 0 0 0 2.56-5.29 5 5 0 0 0-4.23-4.13zm-1.62 7.95c-1.41 0-2.46-1.29-2.47-3.08a2.26 2.26 0 0 1 2.39-2.42c1.35 0 2.4 1.44 2.38 3.2a2.19 2.19 0 0 1-2.26 2.3zM383.76 169.17a3.74 3.74 0 0 0-4.22-1.94 8.94 8.94 0 0 0-5.43 3.39l1.46 1.65c3.54-2.43 3.74-2.48 4.89-.94-.63.33-1.27.61-1.84 1a10.44 10.44 0 0 0-2.1 1.63 2.68 2.68 0 0 0 .53 4 2.84 2.84 0 0 0 3.26.15 27.75 27.75 0 0 0 2.82-2.15c1.33.27 2.33-.72 3.52-1.53-1-1.8-1.91-3.55-2.89-5.26zm-1.91 5.28a3.76 3.76 0 0 1-1.47 1c-.17.08-.63-.15-.75-.36a1.32 1.32 0 0 1 0-.87.86.86 0 0 1 .37-.41c.4-.28.83-.54 1.61-1 .14.77.39 1.37.24 1.63zM262.4 189.87c-.19 1.65-.36 3.31-.55 5a1.53 1.53 0 0 1-3-.16 14.2 14.2 0 0 1 .09-1.92c.14-1.38.32-2.76.51-4.32l-3.59-.41c-.27 2.44-.68 4.6-.71 6.76a3.67 3.67 0 0 0 4.61 3.79 15 15 0 0 0 1.67-.51c1 1.29 2.33.77 3.71 1.12l1-10-3.49-.37c-.16.53-.22.77-.25 1.02zM289.94 190.67a6 6 0 0 0-7.08.92c-1.87 2-1.73 5.78.27 7.48s6.14 1.79 8.49.11l-.58-1.66c-4.49.7-5.11.54-5.59-1.58h6c.49-2.77.01-4.28-1.51-5.27zm-1.72 3.1h-2.91c.05-1.2.57-1.83 1.62-1.8s1.37.73 1.29 1.8z"/><path class="cls-2" d="M179.67 143.69l11.63 14 5-3.68c-5.5-3.62-10.89-7.19-16.33-10.66z"/><path class="cls-3" d="M241.28 185.44a4.75 4.75 0 0 0-4.14 3.24 4.64 4.64 0 0 0 .76 5 7.35 7.35 0 0 0 7 2.09v-2.18c-.83-.14-1.59-.2-2.32-.39-1.73-.46-2.47-1.57-2.11-3.06s1.53-2.19 3.23-1.86c.73.14 1.45.34 2.24.53l.73-2a7.62 7.62 0 0 0-5.39-1.37zM321.69 194.58c-1.75.23-2.83-.52-3.1-2.07s.6-2.6 2.31-2.92c.73-.14 1.46-.21 2.29-.33l-.17-2.2a7.78 7.78 0 0 0-5.87 1 4.77 4.77 0 0 0-2.17 5 4.39 4.39 0 0 0 2.94 3.91 7.79 7.79 0 0 0 6.88-.82l-.74-2.07c-.88.19-1.62.4-2.37.5zM252.21 189.29c.33-2.05.65-4.11 1-6.3l-3.44-.44c-.58 3.16-1.13 6.11-1.66 9.05a30.5 30.5 0 0 0-.45 3 2.29 2.29 0 0 0 1.68 2.5 24 24 0 0 0 3.25.57l.23-2.05c-1.46-.85-1.48-.85-1.25-2.4.19-1.29.43-2.61.64-3.93zM350.14 180.29c-1.31-.81-2.34.28-3.8.56l3 9.53c.8-.25 1.35-.4 1.89-.59s1-.4 1.65-.65c-.4-1.23-.73-2.32-1.09-3.41-1-3-1-3 1.77-4.57.09-.05.13-.21.22-.37l-.85-2.35zM341.8 182.88c-1.38-.78-2.49.17-3.88.48l2.56 9.59 3.58-1c-.37-1.39-.67-2.62-1-3.83-.81-2.85-.81-2.85 1.94-4.11.1 0 .16-.19.33-.41l-.75-2.46zM354.71 178.09l3.42 9.36 3.53-1.39-3.58-9.32zM301.35 191.93l.11 2a16.23 16.23 0 0 0-2.05.39 2.78 2.78 0 0 0-1.83 3.21c.2 1.39 1.12 2.43 2.34 2.35a39.74 39.74 0 0 0 4-.66l-.7-7.63zm-.46 6.48a1.68 1.68 0 0 1-1.18-.68c-.63-1.23.1-2.13 1.8-2.19.06.61.14 1.23.19 1.85s-.19 1.08-.8 1.01z"/><path class="cls-2" d="M76.53 49.3l-10.74-3.25.79 4.21c3.32-.26 6.66-.03 9.95-.96z"/><path class="cls-3" d="M307.76 193.45a2.92 2.92 0 0 0-3.2 3c0 1.81 1.2 2.88 3.18 2.71a8 8 0 0 0 2.25-.79c.06 0 0-.44-.06-.71-1.09-.23-2.24.62-3.42-.62l3.77-.7c-.05-2.1-.77-2.9-2.52-2.89z"/><path class="cls-2" d="M63.71 163.21v.26L75 166.54l-1.25-3.94zM270.06 12.64h-4.63l4.63 6zM28.47 71.06v-8.2L25.61 65l2.63 6.15z"/><path class="cls-3" d="M357.34 174.55a1.83 1.83 0 0 0-1.79-1.86 2 2 0 0 0-2.15 1.94 1.79 1.79 0 0 0 1.76 1.87 2.09 2.09 0 0 0 2.18-1.95z"/><path class="cls-2" d="M104.39 53l-.88-6.36-3.13.58 3.62 5.96zM372.08 70.94l-4.34-4.14-.3.19 1.72 5.92zM254.5 166.88c.5-1.94 1.07-3.46.94-5.22l-3-.25zM27.87 161.52v3c.68.12 1.3.25 1.92.32s1.29.07 1.93.1l.1-.35-3.56-3.28zM328.63 64.29a23.47 23.47 0 0 0 2.13 7.38c.4-3.89.13-4.83-2.13-7.38zM148.8 60.22l1-3.61-3.19.91zM146 130.77l1.44 4c.75-3.13.75-3.13-1.44-4z"/><path class="cls-4" d="M66.76.48h10.35l-4.52 28.49H62.25L66.76.48zM120.8 28.95h-11L124.24.46h11.44l5.66 28.48h-11l-.34-3.55h-7.82l-1.38 3.55zm8.46-10.3l-.41-5c-.11-1.19-.09-2.45-.09-3.65h-.39l-3.26 8.69zM30.46 12a7.72 7.72 0 0 0-5.62-2.87 6.8 6.8 0 0 0-6.51 5.55 4.74 4.74 0 0 0 4.91 5.55 9.7 9.7 0 0 0 6.35-2.64l-2 10.66c-1.79.81-5.69 1.15-7.59 1.15-8.07 0-13.41-6.3-12.13-14.4 1.31-8.35 8.9-15 17.25-15a20.54 20.54 0 0 1 6.77 1.17L30.46 12zM40 28.95H29L43.44.46h11.44l5.66 28.48h-11l-.39-3.55h-7.77L40 28.95zm8.49-10.3l-.41-5A32.17 32.17 0 0 1 48 10h-.39l-3.26 8.69z"/><path class="cls-5" d="M101.67 13.92L114.81.53l-12.57.04-4.81 4.86 4.24 8.49z"/><path class="cls-4" d="M89.28 13.92L82.56.57h12.37l6.74 13.35H89.28zM95.52 28.92l-2.91-5.44 8.28-8.18 6.99 13.62H95.52z"/><path class="cls-5" d="M87.2 29.04l13.69-13.74-12.45-.03-13.42 13.77H87.2z"/></svg>