<svg enable-background="new 0 0 386.6 200.4" viewBox="0 0 386.6 200.4" xmlns="http://www.w3.org/2000/svg"><path d="m365.5 177.5c0 1.4.6 2.6 1.7 3.4.7.3 1.6.1 2.1-.4.6-.4.7-1.2.3-1.8-.5-1.1-1-2.2-1.5-3.2-1.8.2-2.5.8-2.6 2zm-34.2 9.8c-1.2-.1-2.3.9-2.4 2.1v.3c0 1.8 1.1 3.1 2.5 3.1 1.2.1 2.2-.9 2.3-2.1 0-.1 0-.1 0-.2 0-1.7-1-3.2-2.4-3.2zm-59 5.4-.4 4.4c1.8.6 2.9.4 3.5-.6.7-1.2.7-2.6 0-3.8-.6-.8-1.5-.8-3.1 0zm29.2 2.8c-1.7.1-2.4 1-1.8 2.2.3.4.7.6 1.2.7.6.1.9-.4.8-1s-.1-1.3-.2-1.9zm78.5-21.7c-.2.1-.3.2-.4.4-.1.3-.1.6 0 .9.1.2.6.4.8.4.6-.2 1.1-.6 1.5-1 .2-.3-.1-.9-.2-1.6-.9.4-1.3.7-1.7.9zm-93.1 18.2c-1.1 0-1.6.6-1.6 1.8h2.9c.1-1.1-.2-1.8-1.3-1.8z" fill="none"/><path d="m327.2 164.9 2 6.7c.7-.2 1.3-.3 1.8-.5l12.7-4.3c1.4-.4 2.7-.9 4-1.4 5.8-2.7 11.6-5.5 17.4-8.2 3.5-1.7 6.8-3.9 9.6-6.6 12.7-12.2 14.7-31.6 7.2-45.9-2.5-4.8-5.9-9.1-10.9-11.6-2.6-1.4-4.9-3.3-6.6-5.7-2.3-2.9-3.3-6.6-2.9-10.3.2-3.1 2.7-4.4 5.5-3.1.3.1.5.2 1.1.4l-10.5-28.7c-4.1-.7-6.8-.1-10.5 1.3-3 1.1-5.6 2.8-7 5.8-1 2.2-2.1 4.4-3 6.7s-1.5 4.4-2.2 6.6c-1.8 5.5-2.7 11.1-1.7 16.8v1.2c-.5-.9-.8-1.9-1.1-2.9-4.7-16-9.3-32-14-47.9-.6-2-.7-2.1-2.6-1.9l-21.4 2-5.1.5c0 .2-.1.3-.1.5.1.5.2 1 .4 1.5 3.2 10.8 4.9 21.9 5.1 33.1.2 10.8-.8 21.5-3 32.1-2.5 11.7-6.4 23-12.7 33.2-3.1 5-6.4 9.8-9.5 14.6-4.4 6.8-8.8 13.5-13.2 20.3-.5.7-1 1.4-1.8 2.3-9.3-28.2-18.4-56-27.6-83.8 1.6-1.2 3-2.2 4.4-3.3 1.2-.8 2.4-1.6 3.6-2.4.3-.3.5-.6.8-.9 2.8-2.1 5.7-4.2 8.5-6.3 4.3-3.3 8.7-6.5 12.9-10 3.6-3 6.6-6.7 8.9-10.8 4.2-7.2 5.4-15.1 5.3-23.3-.1-6.7-2.9-13-7.7-17.7-.4-.5-1-.8-1.6-.9-4.2-.9-8.5-1.2-12.8-1-6.5.4-12.9 1.5-19.1 3.3-5 1.5-10.2 2.7-14.7 5.4-6.8 4.1-13.4 8.2-20.2 12.3-.9.5-1.4 1.5-1.5 2.5-.4 3.7-.9 7.4-1.4 11.1-1.1 8.7-2.2 17.3-3.4 25.9l-3.3 25.3c-1.1 8.4-2.1 16.9-3.2 25.3-.7 5.5-1.6 10.9-2.4 16.3-.2 1.2-.5 2.5-.8 3.7l27.3 16 3.9-28.6c.4.4.7.9.8 1.4 3.1 9.4 6.2 18.8 9.3 28.3.3 1.2 1.2 2.1 2.4 2.4 9.8 3 19.6 6 29.4 9.1.6.2 1.1.4 1.7.6-.4 1.2-1.6 1.8-1.9 3l31.2 4.6c.3-.4.5-.6.7-.9 1.3-2 2.6-3.9 3.9-6 .5-1.1 1.6-1.8 2.9-1.8 1.3-.1 2.7-.3 4-.6l28.3-4.2c1.5-.2 3-.4 4.4-.6zm10.5-67c.3.6.6 1.1 1 1.6 3.8 6.5 9 12 15.3 16.2.8.5 1.6 1 2.5 1.4 5.1 2.7 7.6 6.9 7.3 12.8-.1 6.7-1.7 13.2-4.6 19.3-1.2 2.4-2.4 4.8-3.5 7.2-.2.4-.5.7-.9 1.4l-17.5-59.8zm-117.6-42c-.2.1-.4.2-.7.2.1-.9.2-1.7.3-2.5.4-3.2.8-6.5 1.1-9.7 0-.7.4-1.4 1-1.7 5-3.3 10.2-6.3 16.3-7.3 1.4-.2 2.9-.4 4.6-.7 0 3.1-.8 5.7-2.8 7.6-2.4 2.3-4.9 4.5-7.6 6.4-4 2.7-8.2 5.1-12.2 7.7zm83.2 83.9c5.2-13.4 9.1-27 10.5-41.3 2.4 12.7 4.5 25.4 6.8 38.4zm-228.5 20.3c0-.9-.1-1.7-.1-2.4-1-10-2.1-20-3.2-30-1.5-13.9-3-27.8-4.4-41.6-1.2-11.8-2.4-23.6-3.6-35.3-.1-1.2 0-2.5-.8-3.7-8.1 2.5-16.3 4.5-24.3 7.4.2 2.5.4 4.8.7 7.1s.5 4.5.7 6.7l.8 6.9.7 6.9c.2 2.3.5 4.6.8 6.9l.7 6.7c.2 2.3.5 4.6.7 6.9s.7 4.4.4 6.7c-.5-.6-1-1.2-1.4-1.9-3.2-5.5-6-11.2-8.3-17.1-1.9-4.7-3.6-9.4-5.6-14.1-1.4-3.3-3-6.5-4.7-10-2.8 2.2-5.4 4-7.7 6.2-4 3.6-7.2 8.1-9.4 13-2 4.8-3.6 9.8-4.8 14.9-.9 3.1-1.5 6.2-1.8 9.4-.5 6.3.4 12.6 2.6 18.5 2.4 7.5 6.6 14.3 12.1 20 6.1 6.1 12.7 11.8 19.6 17 .3.1.6.3.8.3-.3-1.5-.5-2.9-.7-4.2l-4.3-22.8c-.1-.6-.1-1.1-.1-1.7.6.5 1.1 1.1 1.4 1.8 3.5 7 7.1 13.9 10.5 20.9.4 1.3 1.7 2.1 3.1 1.9 8.1-.3 16.3-.5 24.4-.8 1.6-.3 3.3-.4 5.2-.5zm46.3-70.6c-6-11.7-11.9-23.4-17.9-35.1-1.7-3.4-.9-2.8-4.4-2.8-8.9.1-17.8.4-26.7.5h-6l12 114.5 24.4-6.6-.4-5.7c7.1-2.2 14.2-3.5 21.2-5.4l2.6 4.8 24.7-6.6c-.8-1.6-1.5-2.9-2.2-4.2-9-17.7-18.2-35.5-27.3-53.4zm-20.7 46.3-4-38.1h.4l18.6 36.5z" fill="#50afcc"/><path d="m235.2 89.4c1 8.6 2 17.2 3 25.8.3 3.6 1.1 7.2 2.2 10.7 4.4 12.3 18.5 16 27.8 12.2 6.1-2.4 11.1-7 14.1-12.7 3.1-5.7 5.3-11.7 4.8-18.3-.2-3.1-.4-6.3-.7-9.4-.6-7-1.2-13.9-1.9-20.9-.2-1.9-.4-3.8-.6-5.9l-20.5 4.7v4.8c.2 8.8.5 17.5.7 26.3v1.9c-.2 1.9-1.6 3.4-3.4 3.6-1.8.3-3.6-.8-4.3-2.5-.3-.7-.5-1.4-.6-2.2-1.1-8.2-2.1-16.5-3.2-24.8-.2-1.5-.5-3-.7-4.5-.7.1-1.1.2-1.6.3-4.6 1.1-9.2 2.1-13.9 3.2-.6.1-1.2.2-1.8.2-.1.5-.2 1.1-.2 1.6.3 1.9.5 3.9.8 5.9zm-71.3 20.7c-1.8-3.2-3.6-6.4-5.4-9.5-4.1-7.5-8.6-14.7-13.5-21.7-2.2-3.1-4.2-6.3-6.3-9.4-1.7-2.5-1.9-5.7-.6-8.4.5-1.2 1.4-2.3 2.5-3.1 1.9-1.3 4.2-2.1 6.5-2.1.9-.1 1.7-.2 2.6-.4-1.2-5.1-2.4-10-3.6-14.9-.2-.5-.5-.8-1-1-3.9-1.8-8.3-2.4-12.6-1.7-12.3 1.8-20.7 13.3-18.8 25.5.3 2.3 1 4.5 2 6.5 3 6.2 6.4 12.1 10.3 17.8 3.6 5.2 7.1 10.5 10.4 15.9 2.5 4.1 4.8 8.3 7.2 12.5 2.1 3.4 3.8 7 5.1 10.8 1.1 3.6 2.1 7.2 1 10.9-.3 1.1-.6 2.2-.9 3.2l22.8-2.2c-.2-2.1-.4-4.2-.7-6.3-.9-7.9-3.2-15.5-7-22.4z" fill="#50afcc"/><path d="m365.4 169 1.6 3.9c-.7.3-1.3.4-1.8.7-2.8 1.1-4.1 4.2-3 7 .2.5.5 1 .9 1.5 1.4 2 4.1 2.5 6.1 1.1.3-.2.5-.4.7-.6.3-.3.5-.7.8-1 1.6.6 2.6-.5 3.9-1.1l-6-13zm3.9 11.4c-.6.6-1.4.7-2.1.4-1.1-.8-1.8-2-1.7-3.4.1-1.2.8-1.7 2.7-2.1.5 1 .9 2.1 1.5 3.2.4.7.2 1.5-.4 1.9zm-95.7 9.5-1 .3.2-4.7c-.5-.1-1-.2-1.4-.3s-1.1-.1-2-.1l-1.1 13.8c1.3.4 2.5.8 3.8 1.1 1.7.4 3.5.1 5.1-.6 2.4-1.3 3.3-4.2 2.2-6.6-.9-2.5-3.5-3.7-5.8-2.9zm2 6.6c-.7 1-1.8 1.2-3.5.6l.4-4.4c1.5-.8 2.4-.8 3.1.1.6 1.1.7 2.6 0 3.7zm57.4-11.6c-1.6-.3-3.2 0-4.6.7-2.3 1-3.5 3.5-2.9 5.9.5 2.5 2.5 3.9 5.3 4.1 1.3-.3 2.7-.8 3.9-1.3 2-.9 3.1-3.1 2.6-5.3-.4-2.2-2.1-3.8-4.3-4.1zm-1.6 7.9c-1.4 0-2.5-1.3-2.5-3.1-.1-1.2.8-2.3 2.1-2.4h.3c1.4 0 2.4 1.4 2.4 3.2.1 1.2-.9 2.2-2.1 2.3-.1 0-.1 0-.2 0zm52.4-23.6c-.8-1.5-2.5-2.4-4.2-1.9-2.2.4-4.1 1.6-5.4 3.4l1.5 1.6c3.5-2.4 3.7-2.5 4.9-.9-.6.3-1.3.6-1.8 1-.8.5-1.5 1-2.1 1.6-1 1.1-.9 2.8.2 3.8.1.1.2.2.3.2.9.7 2.3.8 3.3.1s1.9-1.4 2.8-2.1c1.3.3 2.3-.7 3.5-1.5-1.1-1.9-2.1-3.6-3-5.3zm-1.9 5.2c-.4.4-.9.8-1.5 1-.2.1-.6-.1-.8-.4-.1-.3-.1-.6 0-.9.1-.2.2-.3.4-.4.4-.3.8-.5 1.6-1 .2.9.4 1.5.3 1.7zm-119.5 15.5c-.2 1.6-.4 3.3-.5 5-.2.8-1 1.3-1.9 1.1-.6-.2-1.1-.7-1.1-1.3s0-1.3.1-1.9c.1-1.4.3-2.8.5-4.3l-3.6-.4c-.3 2.4-.7 4.6-.7 6.8-.1 2 1.4 3.8 3.4 3.9.4 0 .8 0 1.2-.1.6-.1 1.1-.3 1.7-.5 1 1.3 2.3.8 3.7 1.1l1-10-3.5-.4c-.2.5-.3.7-.3 1zm27.5.8c-2.3-1.3-5.2-.9-7.1.9-1.9 2-1.7 5.8.3 7.5s6.1 1.8 8.5.1l-.6-1.7c-4.5.7-5.1.5-5.6-1.6h6c.5-2.7.1-4.2-1.5-5.2zm-1.7 3.1h-2.9c0-1.2.6-1.8 1.6-1.8s1.4.7 1.3 1.8z" fill="#7c7c7c"/><path d="m179.7 143.7 11.6 14 5-3.7c-5.5-3.6-10.9-7.2-16.3-10.7z" fill="#50afcc"/><path d="m241.3 185.4c-1.9.1-3.5 1.4-4.1 3.2-.8 1.7-.5 3.6.8 5 1.8 1.9 4.5 2.7 7 2.1v-2.2c-.8-.1-1.6-.2-2.3-.4-1.7-.5-2.5-1.6-2.1-3.1s1.5-2.2 3.2-1.9c.7.1 1.4.3 2.2.5l.7-2c-1.6-.9-3.5-1.4-5.4-1.2zm80.4 9.2c-1.8.2-2.8-.5-3.1-2.1s.6-2.6 2.3-2.9c.7-.1 1.5-.2 2.3-.3l-.2-2.2c-2-.5-4.1-.1-5.9 1-1.7 1-2.6 3-2.2 5 .1 1.8 1.3 3.3 2.9 3.9 2.3.8 4.8.5 6.9-.8l-.7-2.1c-.8.2-1.6.4-2.3.5zm-69.5-5.3c.3-2.1.6-4.1 1-6.3l-3.4-.4c-.6 3.2-1.1 6.1-1.7 9.1-.2 1-.3 2-.4 3-.1 1.1.6 2.2 1.7 2.5s2.2.5 3.2.6l.2-2.1c-1.5-.9-1.5-.9-1.2-2.4.2-1.4.4-2.7.6-4zm97.9-9c-1.3-.8-2.3.3-3.8.6l3 9.5c.8-.2 1.4-.4 1.9-.6s1-.4 1.6-.6c-.4-1.2-.7-2.3-1.1-3.4-1-3-1-3 1.8-4.6.1-.1.1-.2.2-.4l-.9-2.4zm-8.3 2.6c-1.4-.8-2.5.2-3.9.5l2.6 9.6 3.6-1c-.4-1.4-.7-2.6-1-3.8-.8-2.9-.8-2.9 1.9-4.1.1 0 .2-.2.3-.4l-.8-2.5zm12.9-4.8 3.4 9.4 3.5-1.4-3.6-9.3zm-53.3 13.8.1 2c-.7.1-1.4.2-2 .4-1.3.5-2.1 1.8-1.8 3.2.2 1.4 1.1 2.4 2.3 2.4 1.3-.2 2.7-.4 4-.7l-.7-7.6zm-.5 6.5c-.5 0-.9-.3-1.2-.7-.6-1.2.1-2.1 1.8-2.2.1.6.1 1.2.2 1.9s-.2 1.1-.8 1z" fill="#7c7c7c"/><path d="m76.5 49.3-10.7-3.3.8 4.2c3.3-.2 6.6 0 9.9-.9z" fill="#50afcc"/><path d="m307.8 193.4c-1.6-.2-3 1-3.2 2.6v.4c0 1.8 1.2 2.9 3.2 2.7.8-.1 1.5-.4 2.2-.8.1 0 0-.4-.1-.7-1.1-.2-2.2.6-3.4-.6l3.8-.7c-.1-2.1-.8-2.9-2.5-2.9z" fill="#7c7c7c"/><path d="m63.7 163.2v.3l11.3 3.1-1.2-3.9zm206.4-150.6h-4.6l4.6 6zm-241.6 58.5v-8.2l-2.9 2.1 2.6 6.2z" fill="#50afcc"/><path d="m357.3 174.6c0-1-.8-1.8-1.8-1.9-1.1-.1-2.1.7-2.1 1.8v.1c0 1 .7 1.8 1.7 1.9h.1c1.1.1 2.1-.8 2.1-1.9z" fill="#7c7c7c"/><path d="m104.4 53-.9-6.4-3.1.6 3.6 6zm267.7 17.9-4.3-4.1-.3.2 1.7 5.9zm-117.6 96c.5-1.9 1.1-3.5.9-5.2l-3-.2zm-226.6-5.4v3c.7.1 1.3.2 1.9.3s1.3.1 1.9.1l.1-.4-3.6-3.3zm300.7-97.2c.3 2.6 1 5.1 2.1 7.4.5-3.9.2-4.9-2.1-7.4zm-179.8-4.1 1-3.6-3.2.9zm-2.8 70.6 1.4 4c.8-3.2.8-3.2-1.4-4z" fill="#50afcc"/><path d="m66.8.5h10.3l-4.5 28.5h-10.4zm54 28.5h-11l14.4-28.5h11.4l5.7 28.5h-11l-.3-3.5h-7.8zm8.5-10.3-.4-5c-.1-1.2-.1-2.4-.1-3.6h-.4l-3.3 8.7zm-98.8-6.7c-1.4-1.7-3.4-2.8-5.6-2.9-3.2.1-5.9 2.4-6.5 5.6-.5 2.6 1.3 5 3.9 5.5.3.1.7.1 1.1.1 2.4-.1 4.6-1 6.4-2.6l-2 10.7c-1.8.8-5.7 1.1-7.6 1.1-8.1 0-13.4-6.3-12.1-14.4 1.1-8.5 8.7-15.1 17-15.1 2.3 0 4.6.4 6.8 1.2zm9.5 17h-11l14.4-28.5h11.4l5.7 28.5h-11l-.4-3.5h-7.8zm8.5-10.3-.4-5c-.1-1.3-.1-2.5-.1-3.7h-.4l-3.3 8.7z" fill="#0060a8"/><path d="m101.7 13.9 13.1-13.4h-12.6l-4.8 4.9z" fill="#ef9f00"/><path d="m89.3 13.9-6.7-13.3h12.4l6.7 13.4h-12.4zm6.2 15-2.9-5.4 8.3-8.2 7 13.6z" fill="#0060a8"/><path d="m87.2 29 13.7-13.7h-12.4l-13.5 13.7z" fill="#ef9f00"/></svg>