<?xml version="1.0" encoding="utf-8"?>
<!-- Generator: Adobe Illustrator 21.0.2, SVG Export Plug-In . SVG Version: 6.00 Build 0)  -->
<svg version="1.1" id="Layer_1" xmlns="http://www.w3.org/2000/svg" xmlns:xlink="http://www.w3.org/1999/xlink" x="0px" y="0px"
	 viewBox="0 0 386.6 200.4" style="enable-background:new 0 0 386.6 200.4;" xml:space="preserve">
<style type="text/css">
	.st0{fill:none;}
	.st1{fill:#50AFCC;}
	.st2{fill:#7C7C7C;}
	.st3{fill:#0060A8;}
	.st4{fill:#EF9F00;}
</style>
<title>2_logo</title>
<path class="st0" d="M365.5,177.5c0,1.4,0.6,2.6,1.7,3.4c0.7,0.3,1.6,0.1,2.1-0.4c0.6-0.4,0.7-1.2,0.3-1.8c0,0,0,0,0,0
	c-0.5-1.1-1-2.2-1.5-3.2C366.3,175.7,365.6,176.3,365.5,177.5L365.5,177.5z M331.3,187.3c-1.2-0.1-2.3,0.9-2.4,2.1
	c0,0.1,0,0.2,0,0.3c0,1.8,1.1,3.1,2.5,3.1c1.2,0.1,2.2-0.9,2.3-2.1c0-0.1,0-0.1,0-0.2C333.7,188.8,332.7,187.3,331.3,187.3z
	 M272.3,192.7l-0.4,4.4c1.8,0.6,2.9,0.4,3.5-0.6c0.7-1.2,0.7-2.6,0-3.8C274.8,191.9,273.9,191.9,272.3,192.7L272.3,192.7z
	 M301.5,195.5c-1.7,0.1-2.4,1-1.8,2.2c0.3,0.4,0.7,0.6,1.2,0.7c0.6,0.1,0.9-0.4,0.8-1S301.6,196.1,301.5,195.5z M380,173.8
	c-0.2,0.1-0.3,0.2-0.4,0.4c-0.1,0.3-0.1,0.6,0,0.9c0.1,0.2,0.6,0.4,0.8,0.4c0.6-0.2,1.1-0.6,1.5-1c0.2-0.3-0.1-0.9-0.2-1.6
	C380.8,173.3,380.4,173.6,380,173.8z M286.9,192c-1.1,0-1.6,0.6-1.6,1.8h2.9C288.3,192.7,288,192,286.9,192z"/>
<path class="st1" d="M327.2,164.9l2,6.7c0.7-0.2,1.3-0.3,1.8-0.5l12.7-4.3c1.4-0.4,2.7-0.9,4-1.4c5.8-2.7,11.6-5.5,17.4-8.2
	c3.5-1.7,6.8-3.9,9.6-6.6c12.7-12.2,14.7-31.6,7.2-45.9c-2.5-4.8-5.9-9.1-10.9-11.6c-2.6-1.4-4.9-3.3-6.6-5.7
	c-2.3-2.9-3.3-6.6-2.9-10.3c0.2-3.1,2.7-4.4,5.5-3.1c0.3,0.1,0.5,0.2,1.1,0.4l-10.5-28.7c-4.1-0.7-6.8-0.1-10.5,1.3
	c-3,1.1-5.6,2.8-7,5.8c-1,2.2-2.1,4.4-3,6.7s-1.5,4.4-2.2,6.6c-1.8,5.5-2.7,11.1-1.7,16.8c0,0.4,0,0.8,0,1.2
	c-0.5-0.9-0.8-1.9-1.1-2.9c-4.7-16-9.3-32-14-47.9c-0.6-2-0.7-2.1-2.6-1.9l-21.4,2l-5.1,0.5c0,0.2-0.1,0.3-0.1,0.5
	c0.1,0.5,0.2,1,0.4,1.5c3.2,10.8,4.9,21.9,5.1,33.1c0.2,10.8-0.8,21.5-3,32.1c-2.5,11.7-6.4,23-12.7,33.2c-3.1,5-6.4,9.8-9.5,14.6
	c-4.4,6.8-8.8,13.5-13.2,20.3c-0.5,0.7-1,1.4-1.8,2.3c-9.3-28.2-18.4-56-27.6-83.8c1.6-1.2,3-2.2,4.4-3.3c1.2-0.8,2.4-1.6,3.6-2.4
	c0.3-0.3,0.5-0.6,0.8-0.9c2.8-2.1,5.7-4.2,8.5-6.3c4.3-3.3,8.7-6.5,12.9-10c3.6-3,6.6-6.7,8.9-10.8c4.2-7.2,5.4-15.1,5.3-23.3
	c-0.1-6.7-2.9-13-7.7-17.7c-0.4-0.5-1-0.8-1.6-0.9c-4.2-0.9-8.5-1.2-12.8-1c-6.5,0.4-12.9,1.5-19.1,3.3c-5,1.5-10.2,2.7-14.7,5.4
	c-6.8,4.1-13.4,8.2-20.2,12.3c-0.9,0.5-1.4,1.5-1.5,2.5c-0.4,3.7-0.9,7.4-1.4,11.1c-1.1,8.7-2.2,17.3-3.4,25.9l-3.3,25.3
	c-1.1,8.4-2.1,16.9-3.2,25.3c-0.7,5.5-1.6,10.9-2.4,16.3c-0.2,1.2-0.5,2.5-0.8,3.7l27.3,16l3.9-28.6c0.4,0.4,0.7,0.9,0.8,1.4
	c3.1,9.4,6.2,18.8,9.3,28.3c0.3,1.2,1.2,2.1,2.4,2.4c9.8,3,19.6,6,29.4,9.1c0.6,0.2,1.1,0.4,1.7,0.6c-0.4,1.2-1.6,1.8-1.9,3
	l31.2,4.6c0.3-0.4,0.5-0.6,0.7-0.9c1.3-2,2.6-3.9,3.9-6c0.5-1.1,1.6-1.8,2.9-1.8c1.3-0.1,2.7-0.3,4-0.6l28.3-4.2
	C324.3,165.3,325.8,165.1,327.2,164.9L327.2,164.9z M337.7,97.9c0.3,0.6,0.6,1.1,1,1.6c3.8,6.5,9,12,15.3,16.2
	c0.8,0.5,1.6,1,2.5,1.4c5.1,2.7,7.6,6.9,7.3,12.8c-0.1,6.7-1.7,13.2-4.6,19.3c-1.2,2.4-2.4,4.8-3.5,7.2c-0.2,0.4-0.5,0.7-0.9,1.4
	L337.3,98L337.7,97.9z M220.1,55.9c-0.2,0.1-0.4,0.2-0.7,0.2c0.1-0.9,0.2-1.7,0.3-2.5c0.4-3.2,0.8-6.5,1.1-9.7c0-0.7,0.4-1.4,1-1.7
	c5-3.3,10.2-6.3,16.3-7.3c1.4-0.2,2.9-0.4,4.6-0.7c0,3.1-0.8,5.7-2.8,7.6c-2.4,2.3-4.9,4.5-7.6,6.4
	C228.3,50.9,224.1,53.3,220.1,55.9L220.1,55.9z M303.3,139.8c5.2-13.4,9.1-27,10.5-41.3c2.4,12.7,4.5,25.4,6.8,38.4L303.3,139.8z
	 M234.8,81.8L234.8,81.8L234.8,81.8z M74.8,160.1c0-0.9-0.1-1.7-0.1-2.4c-1-10-2.1-20-3.2-30c-1.5-13.9-3-27.8-4.4-41.6
	c-1.2-11.8-2.4-23.6-3.6-35.3c-0.1-1.2,0-2.5-0.8-3.7c-8.1,2.5-16.3,4.5-24.3,7.4c0.2,2.5,0.4,4.8,0.7,7.1s0.5,4.5,0.7,6.7l0.8,6.9
	l0.7,6.9c0.2,2.3,0.5,4.6,0.8,6.9l0.7,6.7c0.2,2.3,0.5,4.6,0.7,6.9s0.7,4.4,0.4,6.7c-0.5-0.6-1-1.2-1.4-1.9
	c-3.2-5.5-6-11.2-8.3-17.1c-1.9-4.7-3.6-9.4-5.6-14.1c-1.4-3.3-3-6.5-4.7-10c-2.8,2.2-5.4,4-7.7,6.2c-4,3.6-7.2,8.1-9.4,13
	c-2,4.8-3.6,9.8-4.8,14.9c-0.9,3.1-1.5,6.2-1.8,9.4c-0.5,6.3,0.4,12.6,2.6,18.5c2.4,7.5,6.6,14.3,12.1,20c6.1,6.1,12.7,11.8,19.6,17
	c0.3,0.1,0.6,0.3,0.8,0.3c-0.3-1.5-0.5-2.9-0.7-4.2l-4.3-22.8c-0.1-0.6-0.1-1.1-0.1-1.7c0.6,0.5,1.1,1.1,1.4,1.8
	c3.5,7,7.1,13.9,10.5,20.9c0.4,1.3,1.7,2.1,3.1,1.9c8.1-0.3,16.3-0.5,24.4-0.8C71.2,160.3,72.9,160.2,74.8,160.1z M121.1,89.5
	c-6-11.7-11.9-23.4-17.9-35.1c-1.7-3.4-0.9-2.8-4.4-2.8C89.9,51.7,81,52,72.1,52.1h-6l12,114.5l24.4-6.6l-0.4-5.7
	c7.1-2.2,14.2-3.5,21.2-5.4l2.6,4.8l24.7-6.6c-0.8-1.6-1.5-2.9-2.2-4.2C139.4,125.2,130.2,107.4,121.1,89.5z M100.4,135.8l-4-38.1
	h0.4l18.6,36.5L100.4,135.8z M234.8,81.8L234.8,81.8L234.8,81.8z"/>
<path class="st1" d="M235.2,89.4c1,8.6,2,17.2,3,25.8c0.3,3.6,1.1,7.2,2.2,10.7c4.4,12.3,18.5,16,27.8,12.2
	c6.1-2.4,11.1-7,14.1-12.7c3.1-5.7,5.3-11.7,4.8-18.3c-0.2-3.1-0.4-6.3-0.7-9.4c-0.6-7-1.2-13.9-1.9-20.9c-0.2-1.9-0.4-3.8-0.6-5.9
	l-20.5,4.7v4.8c0.2,8.8,0.5,17.5,0.7,26.3c0,0.6,0,1.3,0,1.9c-0.2,1.9-1.6,3.4-3.4,3.6c-1.8,0.3-3.6-0.8-4.3-2.5
	c-0.3-0.7-0.5-1.4-0.6-2.2c-1.1-8.2-2.1-16.5-3.2-24.8c-0.2-1.5-0.5-3-0.7-4.5c-0.7,0.1-1.1,0.2-1.6,0.3c-4.6,1.1-9.2,2.1-13.9,3.2
	c-0.6,0.1-1.2,0.2-1.8,0.2c-0.1,0.5-0.2,1.1-0.2,1.6C234.7,85.4,234.9,87.4,235.2,89.4L235.2,89.4z M163.9,110.1
	c-1.8-3.2-3.6-6.4-5.4-9.5c-4.1-7.5-8.6-14.7-13.5-21.7c-2.2-3.1-4.2-6.3-6.3-9.4c-1.7-2.5-1.9-5.7-0.6-8.4c0.5-1.2,1.4-2.3,2.5-3.1
	c1.9-1.3,4.2-2.1,6.5-2.1c0.9-0.1,1.7-0.2,2.6-0.4c-1.2-5.1-2.4-10-3.6-14.9c-0.2-0.5-0.5-0.8-1-1c-3.9-1.8-8.3-2.4-12.6-1.7
	c-12.3,1.8-20.7,13.3-18.8,25.5c0.3,2.3,1,4.5,2,6.5c3,6.2,6.4,12.1,10.3,17.8c3.6,5.2,7.1,10.5,10.4,15.9c2.5,4.1,4.8,8.3,7.2,12.5
	c2.1,3.4,3.8,7,5.1,10.8c1.1,3.6,2.1,7.2,1,10.9c-0.3,1.1-0.6,2.2-0.9,3.2l22.8-2.2c-0.2-2.1-0.4-4.2-0.7-6.3
	C170,124.6,167.7,117,163.9,110.1L163.9,110.1z"/>
<path class="st2" d="M365.4,169l1.6,3.9c-0.7,0.3-1.3,0.4-1.8,0.7c-2.8,1.1-4.1,4.2-3,7c0.2,0.5,0.5,1,0.9,1.5
	c1.4,2,4.1,2.5,6.1,1.1c0.3-0.2,0.5-0.4,0.7-0.6c0.3-0.3,0.5-0.7,0.8-1c1.6,0.6,2.6-0.5,3.9-1.1l-6-13L365.4,169z M369.3,180.4
	c-0.6,0.6-1.4,0.7-2.1,0.4c-1.1-0.8-1.8-2-1.7-3.4c0.1-1.2,0.8-1.7,2.7-2.1c0.5,1,0.9,2.1,1.5,3.2
	C370.1,179.2,369.9,180,369.3,180.4C369.3,180.4,369.3,180.4,369.3,180.4L369.3,180.4z M273.6,189.9l-1,0.3l0.2-4.7
	c-0.5-0.1-1-0.2-1.4-0.3s-1.1-0.1-2-0.1l-1.1,13.8c1.3,0.4,2.5,0.8,3.8,1.1c1.7,0.4,3.5,0.1,5.1-0.6c2.4-1.3,3.3-4.2,2.2-6.6
	C278.5,190.3,275.9,189.1,273.6,189.9L273.6,189.9z M275.6,196.5c-0.7,1-1.8,1.2-3.5,0.6l0.4-4.4c1.5-0.8,2.4-0.8,3.1,0.1
	C276.2,193.9,276.3,195.4,275.6,196.5L275.6,196.5z M333,184.9c-1.6-0.3-3.2,0-4.6,0.7c-2.3,1-3.5,3.5-2.9,5.9
	c0.5,2.5,2.5,3.9,5.3,4.1c1.3-0.3,2.7-0.8,3.9-1.3c2-0.9,3.1-3.1,2.6-5.3C336.9,186.8,335.2,185.2,333,184.9z M331.4,192.8
	c-1.4,0-2.5-1.3-2.5-3.1c-0.1-1.2,0.8-2.3,2.1-2.4c0.1,0,0.2,0,0.3,0c1.4,0,2.4,1.4,2.4,3.2c0.1,1.2-0.9,2.2-2.1,2.3
	C331.5,192.8,331.5,192.8,331.4,192.8L331.4,192.8z M383.8,169.2c-0.8-1.5-2.5-2.4-4.2-1.9c-2.2,0.4-4.1,1.6-5.4,3.4l1.5,1.6
	c3.5-2.4,3.7-2.5,4.9-0.9c-0.6,0.3-1.3,0.6-1.8,1c-0.8,0.5-1.5,1-2.1,1.6c-1,1.1-0.9,2.8,0.2,3.8c0.1,0.1,0.2,0.2,0.3,0.2
	c0.9,0.7,2.3,0.8,3.3,0.1c1-0.7,1.9-1.4,2.8-2.1c1.3,0.3,2.3-0.7,3.5-1.5C385.7,172.6,384.7,170.9,383.8,169.2z M381.9,174.4
	c-0.4,0.4-0.9,0.8-1.5,1c-0.2,0.1-0.6-0.1-0.8-0.4c-0.1-0.3-0.1-0.6,0-0.9c0.1-0.2,0.2-0.3,0.4-0.4c0.4-0.3,0.8-0.5,1.6-1
	C381.8,173.6,382,174.2,381.9,174.4L381.9,174.4z M262.4,189.9c-0.2,1.6-0.4,3.3-0.5,5c-0.2,0.8-1,1.3-1.9,1.1
	c-0.6-0.2-1.1-0.7-1.1-1.3c0-0.6,0-1.3,0.1-1.9c0.1-1.4,0.3-2.8,0.5-4.3l-3.6-0.4c-0.3,2.4-0.7,4.6-0.7,6.8c-0.1,2,1.4,3.8,3.4,3.9
	c0.4,0,0.8,0,1.2-0.1c0.6-0.1,1.1-0.3,1.7-0.5c1,1.3,2.3,0.8,3.7,1.1l1-10l-3.5-0.4C262.5,189.4,262.4,189.6,262.4,189.9
	L262.4,189.9z M289.9,190.7c-2.3-1.3-5.2-0.9-7.1,0.9c-1.9,2-1.7,5.8,0.3,7.5s6.1,1.8,8.5,0.1l-0.6-1.7c-4.5,0.7-5.1,0.5-5.6-1.6h6
	C291.9,193.2,291.5,191.7,289.9,190.7L289.9,190.7z M288.2,193.8h-2.9c0-1.2,0.6-1.8,1.6-1.8S288.3,192.7,288.2,193.8z"/>
<path class="st1" d="M179.7,143.7l11.6,14l5-3.7c-5.5-3.6-10.9-7.2-16.3-10.7L179.7,143.7z"/>
<path class="st2" d="M241.3,185.4c-1.9,0.1-3.5,1.4-4.1,3.2c-0.8,1.7-0.5,3.6,0.8,5c1.8,1.9,4.5,2.7,7,2.1v-2.2
	c-0.8-0.1-1.6-0.2-2.3-0.4c-1.7-0.5-2.5-1.6-2.1-3.1s1.5-2.2,3.2-1.9c0.7,0.1,1.4,0.3,2.2,0.5l0.7-2
	C245.1,185.7,243.2,185.2,241.3,185.4L241.3,185.4z M321.7,194.6c-1.8,0.2-2.8-0.5-3.1-2.1s0.6-2.6,2.3-2.9c0.7-0.1,1.5-0.2,2.3-0.3
	l-0.2-2.2c-2-0.5-4.1-0.1-5.9,1c-1.7,1-2.6,3-2.2,5c0.1,1.8,1.3,3.3,2.9,3.9c2.3,0.8,4.8,0.5,6.9-0.8l-0.7-2.1
	C323.2,194.3,322.4,194.5,321.7,194.6L321.7,194.6z M252.2,189.3c0.3-2.1,0.6-4.1,1-6.3l-3.4-0.4c-0.6,3.2-1.1,6.1-1.7,9.1
	c-0.2,1-0.3,2-0.4,3c-0.1,1.1,0.6,2.2,1.7,2.5c1.1,0.3,2.2,0.5,3.2,0.6l0.2-2.1c-1.5-0.9-1.5-0.9-1.2-2.4
	C251.8,191.9,252,190.6,252.2,189.3L252.2,189.3z M350.1,180.3c-1.3-0.8-2.3,0.3-3.8,0.6l3,9.5c0.8-0.2,1.4-0.4,1.9-0.6
	s1-0.4,1.6-0.6c-0.4-1.2-0.7-2.3-1.1-3.4c-1-3-1-3,1.8-4.6c0.1-0.1,0.1-0.2,0.2-0.4l-0.9-2.4L350.1,180.3z M341.8,182.9
	c-1.4-0.8-2.5,0.2-3.9,0.5l2.6,9.6l3.6-1c-0.4-1.4-0.7-2.6-1-3.8c-0.8-2.9-0.8-2.9,1.9-4.1c0.1,0,0.2-0.2,0.3-0.4l-0.8-2.5
	L341.8,182.9z M354.7,178.1l3.4,9.4l3.5-1.4l-3.6-9.3L354.7,178.1z M301.4,191.9l0.1,2c-0.7,0.1-1.4,0.2-2,0.4
	c-1.3,0.5-2.1,1.8-1.8,3.2c0.2,1.4,1.1,2.4,2.3,2.4c1.3-0.2,2.7-0.4,4-0.7l-0.7-7.6L301.4,191.9z M300.9,198.4
	c-0.5,0-0.9-0.3-1.2-0.7c-0.6-1.2,0.1-2.1,1.8-2.2c0.1,0.6,0.1,1.2,0.2,1.9S301.5,198.5,300.9,198.4L300.9,198.4z"/>
<path class="st1" d="M76.5,49.3L65.8,46l0.8,4.2C69.9,50,73.2,50.2,76.5,49.3z"/>
<path class="st2" d="M307.8,193.4c-1.6-0.2-3,1-3.2,2.6c0,0.1,0,0.2,0,0.4c0,1.8,1.2,2.9,3.2,2.7c0.8-0.1,1.5-0.4,2.2-0.8
	c0.1,0,0-0.4-0.1-0.7c-1.1-0.2-2.2,0.6-3.4-0.6l3.8-0.7C310.2,194.2,309.5,193.4,307.8,193.4L307.8,193.4z"/>
<path class="st1" d="M63.7,163.2v0.3l11.3,3.1l-1.2-3.9L63.7,163.2z M270.1,12.6h-4.6l4.6,6V12.6z M28.5,71.1v-8.2L25.6,65l2.6,6.2
	L28.5,71.1z"/>
<path class="st2" d="M357.3,174.6c0-1-0.8-1.8-1.8-1.9c-1.1-0.1-2.1,0.7-2.1,1.8c0,0,0,0.1,0,0.1c0,1,0.7,1.8,1.7,1.9c0,0,0,0,0.1,0
	C356.3,176.6,357.3,175.7,357.3,174.6z"/>
<path class="st1" d="M104.4,53l-0.9-6.4l-3.1,0.6l3.6,6L104.4,53z M372.1,70.9l-4.3-4.1l-0.3,0.2l1.7,5.9L372.1,70.9z M254.5,166.9
	c0.5-1.9,1.1-3.5,0.9-5.2l-3-0.2L254.5,166.9z M27.9,161.5v3c0.7,0.1,1.3,0.2,1.9,0.3s1.3,0.1,1.9,0.1l0.1-0.4l-3.6-3.3L27.9,161.5z
	 M328.6,64.3c0.3,2.6,1,5.1,2.1,7.4C331.2,67.8,330.9,66.8,328.6,64.3z M148.8,60.2l1-3.6l-3.2,0.9L148.8,60.2z M146,130.8l1.4,4
	C148.2,131.6,148.2,131.6,146,130.8z"/>
<path class="st3" d="M66.8,0.5h10.3L72.6,29H62.2L66.8,0.5z M120.8,29h-11l14.4-28.5h11.4l5.7,28.5h-11l-0.3-3.5h-7.8L120.8,29
	L120.8,29z M129.3,18.7l-0.4-5c-0.1-1.2-0.1-2.4-0.1-3.6h-0.4l-3.3,8.7L129.3,18.7z M30.5,12c-1.4-1.7-3.4-2.8-5.6-2.9
	c-3.2,0.1-5.9,2.4-6.5,5.6c-0.5,2.6,1.3,5,3.9,5.5c0.3,0.1,0.7,0.1,1.1,0.1c2.4-0.1,4.6-1,6.4-2.6l-2,10.7c-1.8,0.8-5.7,1.1-7.6,1.1
	c-8.1,0-13.4-6.3-12.1-14.4C9.2,6.6,16.8,0,25.1,0c2.3,0,4.6,0.4,6.8,1.2L30.5,12z M40,29H29L43.4,0.5h11.4l5.7,28.5h-11l-0.4-3.5
	h-7.8L40,29z M48.5,18.7l-0.4-5C48,12.4,48,11.2,48,10h-0.4l-3.3,8.7L48.5,18.7z"/>
<path class="st4" d="M101.7,13.9l13.1-13.4l-12.6,0l-4.8,4.9L101.7,13.9z"/>
<path class="st3" d="M89.3,13.9L82.6,0.6h12.4l6.7,13.4H89.3z M95.5,28.9l-2.9-5.4l8.3-8.2l7,13.6C107.9,28.9,95.5,28.9,95.5,28.9z"
	/>
<path class="st4" d="M87.2,29l13.7-13.7l-12.4,0L75,29H87.2z"/>
</svg>
