<svg viewBox="0 0 37.5 47.9" xmlns="http://www.w3.org/2000/svg"><path d="m24.59 21.73-4.1 4a4.66 4.66 0 0 0 -1.73-.33 4.4 4.4 0 1 0 4.55 4.4 4.24 4.24 0 0 0 -.14-1.09l.08-.07 4.23-4.09a1.93 1.93 0 0 0 0-2.79 2.09 2.09 0 0 0 -2.89-.03zm-5.84 9.81a1.77 1.77 0 1 1 1.83-1.77 1.81 1.81 0 0 1 -1.83 1.77zm2.37-19.76a6.13 6.13 0 0 0 3.95-5.66 6.23 6.23 0 0 0 -6.32-6.12 6.22 6.22 0 0 0 -6.32 6.11 6.13 6.13 0 0 0 3.95 5.66 19 19 0 0 0 -8.23 3l-1.58-1.5a3.83 3.83 0 0 0 -5.28 0l-.19.19a3.54 3.54 0 0 0 0 5.11l1.71 1.65a17.61 17.61 0 0 0 -2.81 9.54c0 10 8.39 18.13 18.75 18.13s18.75-8.11 18.75-18.13a18.36 18.36 0 0 0 -16.38-17.99zm-6-5.66a3.6 3.6 0 0 1 7.2 0 3.45 3.45 0 0 1 -1.53 2.88v-1.18a2 2 0 0 0 -4.08 0v1.18a3.44 3.44 0 0 1 -1.56-2.89zm3.6 36.53a13.12 13.12 0 0 1 -13.29-12.89 13.12 13.12 0 0 1 13.32-12.87 13.12 13.12 0 0 1 13.32 12.87 13.12 13.12 0 0 1 -13.32 12.88z" fill="#39c"/></svg>