<svg viewBox="0 0 510 510" xmlns="http://www.w3.org/2000/svg"><path d="m255 0c-140.25 0-255 114.75-255 255s114.75 255 255 255 255-114.75 255-255-114.75-255-255-255zm-25.5 456.45c-99.45-12.75-178.5-99.45-178.5-201.45 0-15.3 2.55-30.6 5.1-45.9l122.4 122.4v25.5a51.15 51.15 0 0 0 51 51zm176-63.75c-7.7-20.4-25.5-35.7-48.5-35.7h-25.5v-76.5c0-15.3-10.2-25.5-25.5-25.5h-153v-51h51c15.3 0 25.5-10.2 25.5-25.5v-51h51a51.15 51.15 0 0 0 51-51v-10.2c73.95 30.6 127.5 104.55 127.5 188.7 0 53.55-20.4 102-53.55 137.7z" fill="#39c"/></svg>