<svg viewBox="0 0 42.01 40.11" xmlns="http://www.w3.org/2000/svg"><path d="m12.92 20.78h8.85a13.56 13.56 0 0 0 -.26-1.78h2.42a13.51 13.51 0 0 1 .26 1.78h7.52a13 13 0 0 0 -12.81-12.23h-7.52a12.5 12.5 0 0 1 4 .67h-2.38a12.49 12.49 0 0 0 -4-.67h-8.89a13.06 13.06 0 0 1 12.81 12.23zm10.79-2.67h-2.41a13.32 13.32 0 0 0 -2.54-4.89h2.42a13.33 13.33 0 0 1 2.53 4.89zm-6.33-8a13 13 0 0 1 2.94 2.23h-2.38a12.88 12.88 0 0 0 -2.94-2.23zm-6.7-1.56h.7zm-5.52-2.44h1a8.71 8.71 0 0 0 -.3 1.55h5.83a8.35 8.35 0 0 1 7.5-7.66h-5.58a8 8 0 0 0 -2.67.64h-1a7.74 7.74 0 0 1 3.13-.64h-4.8a8.41 8.41 0 0 0 -8.27 7.67h4.86a8.74 8.74 0 0 1 .3-1.56zm3.21-4.56h1a8.46 8.46 0 0 0 -1.15 1h-1a8.38 8.38 0 0 1 1.15-1zm-1.89 1.89h1a8.6 8.6 0 0 0 -1 1.78h-1a8.62 8.62 0 0 1 1-1.78zm35.52 36.67c0-9.78-3.8-17.77-8.57-18.4h-10.85c.42.24.65 1.51.77 3.52h-3c.13-2.11.37-3.4.81-3.52h-10.43c-4.92.29-8.86 8.4-8.89 18.4h18.37v-6.48h3.28v6.48zm-21.81-7.37c0-2.59 0-4.86.09-6.66h3.12c.08 1.81.09 4.08.08 6.66z" fill="#39c"/></svg>