<svg viewBox="0 0 69.46 69.33" xmlns="http://www.w3.org/2000/svg"><g fill="#ee4645"><path d="m22.26 6.53 1.69-.7a.16.16 0 0 1 .2.08.15.15 0 0 1 -.08.19l-2 .82-1.58-3.85 2-.82a.16.16 0 0 1 .2.08.16.16 0 0 1 -.08.19l-1.7.7.58 1.4 1.51-.62a.15.15 0 0 1 .11.27l-1.56.65z"/><path d="m25.36 1.57c-.38.11-.73.4-.61.85a.78.78 0 0 0 .58.52l1.14.3a1.17 1.17 0 0 1 .86.83 1.08 1.08 0 0 1 -.88 1.34 1.07 1.07 0 0 1 -1.45-.73.15.15 0 0 1 .1-.18.14.14 0 0 1 .18.1.77.77 0 0 0 1 .51c.52-.15.81-.51.68-.95a.92.92 0 0 0 -.68-.64l-1.15-.3a1.09 1.09 0 0 1 -.76-.73 1 1 0 0 1 .81-1.22 1 1 0 0 1 1.39.67.16.16 0 0 1 -.1.18.15.15 0 0 1 -.18-.1.76.76 0 0 0 -.93-.45z"/><path d="m30.63 3.23a.16.16 0 0 1 .18.12 1.09 1.09 0 0 1 -1 1.27 1.07 1.07 0 0 1 -1.29-.89l-.34-2.09a1.08 1.08 0 0 1 1-1.24 1.06 1.06 0 0 1 1.29.86.15.15 0 0 1 -.12.17.14.14 0 0 1 -.16-.12.77.77 0 0 0 -1-.62.78.78 0 0 0 -.71.92l.34 2.07a.85.85 0 0 0 1.67-.28.15.15 0 0 1 .14-.17z"/><path d="m32.27.08 1.73-.08a.16.16 0 0 1 .16.15.15.15 0 0 1 -.16.15h-.72l.16 3.56h.73a.16.16 0 0 1 .16.15.15.15 0 0 1 -.14.15l-1.74.08a.14.14 0 0 1 -.15-.14.15.15 0 0 1 .14-.16h.72l-.16-3.59h-.72a.14.14 0 0 1 -.15-.14.15.15 0 0 1 .14-.13z"/><path d="m38.05 0a.15.15 0 0 1 .15.2l-.28 4.12h-.58l-1-3.94h-.05l-.29 3.76a.15.15 0 1 1 -.31 0l.31-4.14h.56l1 4h.05l.28-3.82a.15.15 0 0 1 .16-.18z"/><path d="m40.83.84-1-.18a.16.16 0 0 1 -.12-.17.16.16 0 0 1 .18-.13l2.29.42a.16.16 0 0 1 .12.22.16.16 0 0 1 -.17.12l-1-.18-.69 3.76a.15.15 0 0 1 -.18.12.14.14 0 0 1 -.11-.17z"/><path d="m43 5 1.75.54a.16.16 0 0 1 .1.19.15.15 0 0 1 -.19.09l-2-.63 1.22-4 2 .63a.15.15 0 1 1 -.09.28l-1.79-.55-.44 1.45 1.62.5a.15.15 0 0 1 -.09.28l-1.62-.5z"/><path d="m47.7 5-.79-.34-.71 1.67a.16.16 0 0 1 -.2.08.16.16 0 0 1 -.08-.21l1.65-3.78 1.11.48a1 1 0 0 1 .58 1.41l-.08.19a1.08 1.08 0 0 1 -1.18.65v1.9a.14.14 0 0 1 -.15.15.16.16 0 0 1 -.15-.2zm1.3-.79a.73.73 0 0 0 -.41-1l-.83-.36-.76 1.58.84.37a.72.72 0 0 0 1-.42z"/><path d="m53.83 9a.61.61 0 1 1 .85-.12.6.6 0 0 1 -.85.12z"/><path d="m58.28 15.22-.79-.94 3.21-2.67.77.93a1 1 0 0 1 -.12 1.52l-1.55 1.29a1 1 0 0 1 -1.52-.13zm2.86-1.38a.73.73 0 0 0 .1-1.11l-.58-.7-2.75 2.28.59.71a.72.72 0 0 0 1.1.09z"/><path d="m63.31 15 1 1.46a.16.16 0 0 1 0 .21.15.15 0 0 1 -.2 0l-.4-.61-3 2 .4.61a.16.16 0 0 1 0 .21.15.15 0 0 1 -.2 0l-1-1.46a.14.14 0 0 1 0-.2.15.15 0 0 1 .21 0l.4.61 3-2-.4-.61a.14.14 0 0 1 0-.2.15.15 0 0 1 .19-.02z"/><path d="m65.53 19.22a.71.71 0 0 0 -1-.44.78.78 0 0 0 -.4.67l-.08 1.18a1.18 1.18 0 0 1 -.66 1 1.08 1.08 0 0 1 -1.39-.63 1.07 1.07 0 0 1 .45-1.53.15.15 0 0 1 .2.07.15.15 0 0 1 -.06.19.77.77 0 0 0 -.31 1.12c.25.49.65.7 1.06.5a.92.92 0 0 0 .51-.78l.08-1.19a1.08 1.08 0 0 1 .58-.89 1 1 0 0 1 1.35.57 1 1 0 0 1 -.4 1.49.16.16 0 0 1 -.2-.07.15.15 0 0 1 .07-.2.76.76 0 0 0 .2-1.06z"/><path d="m67 22.73-.35-1a.15.15 0 0 1 .29-.1l.8 2.18a.15.15 0 0 1 -.29.11l-.35-1-3.58 1.31a.15.15 0 0 1 -.19-.09.14.14 0 0 1 .09-.19z"/><path d="m66.21 27.14-.21-.84-1.73.42a.15.15 0 1 1 -.07-.3l4-1 .28 1.17a1 1 0 0 1 -.78 1.31h-.2a1.08 1.08 0 0 1 -1.23-.55l-1.51 1.14a.14.14 0 0 1 -.21 0 .16.16 0 0 1 0-.21zm1.42.51a.73.73 0 0 0 .58-.95l-.21-.88-1.71.41.22.89a.72.72 0 0 0 1 .57z"/><path d="m69.09 29.62.21 1.73a.16.16 0 0 1 -.14.17.15.15 0 0 1 -.16-.13l-.09-.72-3.54.43.09.72a.16.16 0 0 1 -.14.17.15.15 0 0 1 -.16-.13l-.21-1.73a.14.14 0 0 1 .13-.16.15.15 0 0 1 .17.12l.09.72 3.54-.43-.09-.72a.14.14 0 0 1 .13-.16.15.15 0 0 1 .17.12z"/><path d="m65.27 34.53v-1.24h4.17v1.2a1 1 0 0 1 -1 1.06h-.07a1 1 0 0 1 -.9-.46.92.92 0 0 1 -.94.55h-.14a1 1 0 0 1 -1.12-1.11zm1.21.78a.7.7 0 0 0 .79-.77v-1h-1.7v.93a.73.73 0 0 0 .79.79zm1.91-.09a.68.68 0 0 0 .75-.75v-.91h-1.58v.94c0 .31.11.71.77.71z"/><path d="m69.24 39.39a.15.15 0 0 1 -.17.14l-3.07-.34a1.1 1.1 0 0 1 -1-1.28 1.07 1.07 0 0 1 1.2-1l3.07.34a.15.15 0 0 1 .13.17.15.15 0 0 1 -.16.13l-3.07-.34a.85.85 0 0 0 -.17 1.68l3.07.34a.15.15 0 0 1 .17.16z"/><path d="m68.78 41.46-.38 1.7a.16.16 0 0 1 -.18.11.15.15 0 0 1 -.11-.18l.16-.71-3.48-.79-.16.71a.16.16 0 0 1 -.19.11.15.15 0 0 1 -.11-.18l.38-1.7a.14.14 0 0 1 .17-.11.15.15 0 0 1 .12.17l-.16.71 3.48.79.16-.71a.14.14 0 0 1 .17-.11.15.15 0 0 1 .13.19z"/><path d="m63.52 44.83.41-1.16 3.94 1.39-.4 1.14a1 1 0 0 1 -1.37.67l-1.91-.67a1 1 0 0 1 -.67-1.37zm2.66 1.75a.73.73 0 0 0 1-.49l.3-.86-3.37-1.19-.3.87a.72.72 0 0 0 .49 1z"/><path d="m62.18 47.92a1.07 1.07 0 0 1 1.47-.54l1.9.92a1.15 1.15 0 0 1 -1 2.07l-1.9-.92a1.1 1.1 0 0 1 -.47-1.53zm2.49 2.17a.85.85 0 0 0 .74-1.53l-1.89-.91a.85.85 0 0 0 -.74 1.52z"/><path d="m62 52 .46-.72-1.5-1a.16.16 0 0 1 -.05-.21.16.16 0 0 1 .21 0l3.48 2.21-.65 1a1 1 0 0 1 -1.48.35l-.17-.11a1.08 1.08 0 0 1 -.46-1.26l-1.84-.26a.14.14 0 0 1 -.12-.17.15.15 0 0 1 .17-.12zm.63 1.38a.73.73 0 0 0 1.08-.24l.48-.77-1.48-.94-.49.78a.72.72 0 0 0 .25 1.08z"/><path d="m55.23 57.47a.15.15 0 0 1 0-.2.15.15 0 0 1 .21-.05l1 .64 1.12-1.1-.62-1a.15.15 0 0 1 0-.21.14.14 0 0 1 .21.05l2.16 3.56-.58.57zm3.49 1.86.26-.25-1.27-2.08-1 1z"/><path d="m55.34 62.72a.15.15 0 0 1 -.21 0l-1.9-2.45a1.09 1.09 0 0 1 .26-1.57 1.07 1.07 0 0 1 1.56.17l1.89 2.44a.15.15 0 0 1 0 .21.15.15 0 0 1 -.21 0l-1.92-2.52a.85.85 0 0 0 -1.34 1l1.89 2.44a.14.14 0 0 1 -.02.28z"/><path d="m52.75 63.95.87-.53a.15.15 0 0 1 .16.26l-2 1.21a.15.15 0 0 1 -.16-.26l.87-.53-2-3.26a.14.14 0 0 1 0-.21.14.14 0 0 1 .2.05z"/><path d="m47.53 62.3a1.07 1.07 0 0 1 1.48.51l.89 1.92a1.15 1.15 0 0 1 -2.09 1l-.89-1.92a1.1 1.1 0 0 1 .61-1.51zm.55 3.26a.85.85 0 0 0 1.54-.71l-.88-1.91a.85.85 0 0 0 -1.54.71z"/><path d="m44.85 65.37.81-.27-.56-1.69a.15.15 0 1 1 .29-.1l1.29 3.91-1.15.38a1 1 0 0 1 -1.37-.67l-.06-.19a1.08 1.08 0 0 1 .45-1.27l-1.26-1.41a.14.14 0 0 1 0-.21.16.16 0 0 1 .21 0zm-.39 1.46a.73.73 0 0 0 1 .5l.86-.28-.55-1.67-.87.29a.72.72 0 0 0 -.49 1z"/><path d="m42.61 68.44-1.7.35a.16.16 0 0 1 -.18-.12.15.15 0 0 1 .12-.17l.71-.15-.72-3.5-.71.15a.16.16 0 0 1 -.18-.12.15.15 0 0 1 .12-.17l1.7-.35a.14.14 0 0 1 .17.11.15.15 0 0 1 -.11.18l-.71.15.72 3.5.71-.15a.14.14 0 0 1 .17.11.15.15 0 0 1 -.11.18z"/><path d="m38.89 69.1-2 .18v-.29l1.52-3.72-1.89.17a.15.15 0 0 1 -.16-.14.14.14 0 0 1 .14-.16l2.21-.2v.3l-1.54 3.76 1.69-.15a.14.14 0 0 1 .16.13.14.14 0 0 1 -.13.12z"/><path d="m32.6 65.22a.15.15 0 1 1 .3-.06l.26 1.19h1.57l.27-1.13a.15.15 0 0 1 .18-.11.14.14 0 0 1 .11.19l-1.06 4h-.82zm1.08 3.78h.32l.6-2.34h-1.43z"/><path d="m30.42 64.85 1.22.17-.64 4.13-1.15-.15a1 1 0 0 1 -.93-1.21l.29-2a1 1 0 0 1 1.21-.94zm-1.2 2.95a.74.74 0 0 0 .67.89l.9.13.51-3.54-.91-.13a.72.72 0 0 0 -.88.67z"/><path d="m27.1 64.12a1.07 1.07 0 0 1 .81 1.34l-.54 2a1.15 1.15 0 0 1 -2.22-.59l.54-2a1.09 1.09 0 0 1 1.41-.75zm-1.65 2.88a.85.85 0 0 0 1.64.43l.54-2a.85.85 0 0 0 -1.63-.48z"/><path d="m18 65a.16.16 0 0 1 -.21-.07.14.14 0 0 1 .06-.19l1.77-1-.14-2.55a.16.16 0 0 1 .15-.16.16.16 0 0 1 .16.16l.21 2.46.72-.38.62-1.18a.15.15 0 0 1 .2-.06.14.14 0 0 1 .06.2l-1.89 3.61a.14.14 0 0 1 -.2.06.15.15 0 0 1 -.06-.2l1-1.95z"/><path d="m14.39 62.84a.15.15 0 0 1 0-.21l2.32-3.41.48.33-1.19 3.89 2.14-3.15a.15.15 0 1 1 .25.17l-2.32 3.41-.46-.32 1.13-3.94-2.15 3.19a.15.15 0 0 1 -.2.04z"/><path d="m14.87 57.69a1.07 1.07 0 0 1 .13 1.56l-1.38 1.6a1.15 1.15 0 0 1 -1.73-1.51l1.38-1.6a1.1 1.1 0 0 1 1.6-.05zm-2.75 1.84a.85.85 0 0 0 1.28 1.11l1.38-1.59a.85.85 0 0 0 -1.28-1.11z"/><path d="m13.09 56.14-3 2.78a.14.14 0 0 1 -.21 0 .15.15 0 0 1 0-.21l2.82-2.58-1.24-1.35a.16.16 0 0 1 0-.22.15.15 0 0 1 .21 0z"/><path d="m10.76 53.51-3.33 2.42a.15.15 0 0 1 -.21 0 .15.15 0 0 1 0-.21l3.09-2.24-1.04-1.48a.16.16 0 0 1 0-.22.15.15 0 0 1 .21 0z"/><path d="m2.31 47.68a.15.15 0 0 1 -.16-.14.15.15 0 0 1 .13-.16l4.89-.38a.16.16 0 0 1 .17.14.15.15 0 0 1 -.13.16z"/><path d="m.51 39.83a.16.16 0 0 1 -.07-.21.14.14 0 0 1 .19-.07l1.83.83 1.94-1.66a.15.15 0 0 1 .22 0 .16.16 0 0 1 0 .22l-1.87 1.58.74.33 1.32-.23a.15.15 0 0 1 .17.12.14.14 0 0 1 -.12.17l-4 .69a.14.14 0 0 1 -.17-.12.15.15 0 0 1 .12-.17l2.19-.36z"/><path d="m0 35.58a.16.16 0 0 1 .14-.16l3.09-.17a1.1 1.1 0 0 1 1.14 1.11 1.07 1.07 0 0 1 -1 1.19l-3.09.17a.14.14 0 0 1 -.16-.14.15.15 0 0 1 .14-.16l3.09-.17a.85.85 0 0 0 -.09-1.7l-3.09.17a.14.14 0 0 1 -.17-.14z"/><path d="m.42 32.66c0 .39.14.83.6.85a.78.78 0 0 0 .68-.38l.66-1a1.17 1.17 0 0 1 1.07-.54 1.2 1.2 0 0 1 -.17 2.41.15.15 0 0 1 0-.29.77.77 0 0 0 .83-.82c0-.54-.21-.93-.67-1a.92.92 0 0 0 -.83.42l-.66 1a1.08 1.08 0 0 1 -.94.48 1 1 0 0 1 -.89-1.17 1 1 0 0 1 1.1-1.07.16.16 0 0 1 .14.16.15.15 0 0 1 -.16.13c-.43-.02-.73.33-.76.82z"/><path d="m3.75 28.22a.16.16 0 0 1 .17-.13 1.09 1.09 0 0 1 .87 1.33 1.07 1.07 0 0 1 -1.27.92l-2.07-.34a1.08 1.08 0 0 1 -.85-1.35 1.06 1.06 0 0 1 1.24-.93.15.15 0 0 1 .16.18.14.14 0 0 1 -.17.11.77.77 0 0 0 -.9.69.78.78 0 0 0 .62 1l2.03.3a.85.85 0 0 0 .29-1.67.15.15 0 0 1 -.12-.11z"/><path d="m1.26 25.95a.14.14 0 0 1 -.1-.18.15.15 0 0 1 .19-.1l1.7.5.5-1.7-1.7-.47a.14.14 0 0 1 -.1-.18.15.15 0 0 1 .19-.1l3.9 1.16a.14.14 0 0 1 .1.19.14.14 0 0 1 -.18.09l-1.92-.57-.5 1.7 1.92.57a.14.14 0 0 1 .1.19.14.14 0 0 1 -.18.1z"/><path d="m4.9 22.38.42-.92-.89-.4a.14.14 0 1 1 .11-.25l.88.4.42-.93a.14.14 0 0 1 .26.12l-.42.93 1 .43a.13.13 0 0 1 .07.18.14.14 0 0 1 -.19.07l-1-.43-.42.92a.14.14 0 0 1 -.18.07.14.14 0 0 1 -.06-.19z"/><path d="m8.4 17.1a.16.16 0 0 1 .21-.1 1.09 1.09 0 0 1 .32 1.56 1.07 1.07 0 0 1 -1.52.44l-1.8-1.13a1.08 1.08 0 0 1 -.3-1.54 1.06 1.06 0 0 1 1.5-.4.15.15 0 0 1 0 .2.14.14 0 0 1 -.2 0 .77.77 0 0 0 -1.09.31.77.77 0 0 0 .22 1.14l1.78 1.11a.77.77 0 0 0 1.12-.31.77.77 0 0 0 -.23-1.13.14.14 0 0 1 -.01-.15z"/><path d="m10.91 15.77a1.07 1.07 0 0 1 -1.55.23l-1.66-1.33a1.08 1.08 0 0 1 -.12-1.57 1.09 1.09 0 0 1 1.55-.23l1.66 1.31a1.09 1.09 0 0 1 .12 1.59zm-2-2.66a.77.77 0 0 0 -1.14.18.77.77 0 0 0 .09 1.16l1.65 1.3a.85.85 0 0 0 1-1.33z"/><path d="m15.69 9.05a.61.61 0 1 1 .13-.85.61.61 0 0 1 -.13.85z"/><path d="m42.6 34.61a.4.4 0 0 0 -.21-.34l-6.79-3.86 6.79-3.92a.4.4 0 0 0 0-.69l-7.39-4.31a.4.4 0 0 0 -.4 0l-7.43 4.3-.08.06a.41.41 0 0 0 0 .18v17a.42.42 0 0 0 0 .13.4.4 0 0 0 .08.11l.08.06 7.43 4.31a.41.41 0 0 0 .2.05.4.4 0 0 0 .2-.05l7.4-4.31a.4.4 0 0 0 0-.69l-6.89-3.64 6.8-4a.4.4 0 0 0 .21-.39zm-7.81-12.31 6.6 3.84-6.6 3.81-6.63-3.81zm-7 4.53 4.37 2.51 2.26 1.3v7.62l-6.63-3.87zm0 8.48 6.21 3.69-6.23 3.54zm13.63 7.87-6.63 3.82-6.62-3.85 6.62-3.76zm-6.2-4.92v-7.16l6.2 3.52z"/><path d="m34.78 7.85a26.82 26.82 0 1 1 -26.78 26.82 26.85 26.85 0 0 1 26.78-26.82m0-.75a27.57 27.57 0 1 0 27.56 27.57 27.57 27.57 0 0 0 -27.56-27.57z"/></g></svg>