<svg viewBox="0 0 471.37 512.62" xmlns="http://www.w3.org/2000/svg"><path d="m48.15 501.75c10.17-.41 16.77-3.67 22.11-8.91 15-14.7 29.85-29.42 40.35-48 14.46-25.53 30-50.48 42-79.84 53.26 41.65 110.73 72.92 174.68 94.07a272.16 272.16 0 0 1 -11.12 32.52c-5.91 14.57-.9 20.4 15.23 20.28 26.69-.2 53.38.19 80.06.66 14.26.26 28.41-.84 42.56-2.06 6.83-.6 14.09-1.11 16.7-9.13 2.2-6.74-1.27-11.83-5.6-16.77-10.48-11.92-20.6-24.14-31-36.11q-20.63-23.75-41.5-47.28c-3.36-3.79-6.8-7.71-10.85-10.69-9.27-6.8-17.84-5.55-25.54 3-6.25 6.93-9 15.69-12.19 24.09-2.46 6.43-5.47 8.6-12.61 6.09-56.71-20-108.94-48-156.47-84.79-6.53-5.05-7.6-9.37-4.18-17.08 11.68-26.38 22.89-53 28.84-81.42 9.7-46.29 13.16-92.94 5.5-139.89a134.75 134.75 0 0 0 -19.66-52.06c-22.26-34.27-53.46-53.21-94.8-47.43-41.85 5.9-70 31.42-83.14 71.31-14 42.33-7 83.8 8.79 124.39 10.75 27.66 26.17 52.65 44.42 76 18.54 23.67 38 46.61 60.75 66.41 6.71 5.86 7.76 11 4.29 18.78-17.54 39.28-35.14 78.44-60.7 113.5-6.49 8.88-14.87 17.01-16.92 30.36zm95.75-192c-3.63.27-5.25-1.27-6.83-2.83-27.9-27.63-53.31-57.25-73.47-91a206.35 206.35 0 0 1 -27.84-79.55c-2.84-21.65-.89-43 8.43-63.07 14.54-31.4 50.52-46.83 80.93-34.6 16.58 6.58 27.88 19.08 35.83 34.67 7.22 14.25 11.32 29.47 13.59 45.28 4.53 31.71 1.34 63.29-1.59 94.8-3.2 34.16-16.04 65.55-29.05 96.25z" fill="#f7ae2c" fill-rule="evenodd"/></svg>