<svg viewBox="0 0 591.93 154.09" xmlns="http://www.w3.org/2000/svg"><path d="m549.85 81.41c5.36-3.5 10.86-7.44 16.68-10.83 11.3-6.58 14-5.41 17.65 6.9 2.86 9.69 3.63 19.72 4.5 29.73 1.12 12.81 2.46 25.6 3.19 38.44.43 7.62-1.79 9.34-9.33 8.05a66.55 66.55 0 0 1 -13.93-3.63c-18.21-7.38-36.87-13.47-55.43-19.86a34.68 34.68 0 0 1 -4.41-1.91c-7.22-3.72-8.2-9.58-2.12-15.25a160.37 160.37 0 0 1 15.86-13c4.33-3.13 4-5.84 1.51-10-6.39-10.87-14.19-20.17-24.66-27.43-41.03-28.46-86.25-41.62-136.36-37.55-17.2 1.38-34.6.91-51.47 5.56-5 1.37-10.1 2.28-14.38 5-.32 4.64 3.63 5.34 5.63 7.51 20.22 21.86 17.87 40.96.88 59.71a11.85 11.85 0 0 1 -1.72 1.69c-13.46 9.82-27.5 7.78-41.06 1.18-12.62-6.14-21.36-15.6-20.12-31.17 1.06-13.37 3.1-26.4 13.66-37.27-6.07-5-12.73-6.32-19.2-7.11-63.52-7.87-122.22 4.18-174.42 43.35-15.84 11.87-30.45 25-45 38.42-4.08 3.77-8.42 7.33-14.41 9.6-3.19-6.14-.53-10.19 2.72-14.38 31.32-40.29 70.89-68.99 119.38-84.61a249.81 249.81 0 0 1 117.91-8.82c7 1.12 14 3.67 20.62 6.36 5.64 2.27 10.2 2.58 15.71-1a85.85 85.85 0 0 1 32.52-12.48c44.75-7.61 89.38-10.75 133.75 2.1a233.91 233.91 0 0 1 71 34.45c11.59 8.25 21.4 18 28.41 30.52 1.51 2.66 2.59 5.95 6.44 7.73zm-263.44-28.2c-8.79-7.21-10-7.06-16.75 1.56a19.39 19.39 0 0 0 -2.74 4c-3 7.08-5.48 14.57-2.67 22 2.3 6.09 17.53 11.23 23.39 8.83 7-2.87 11.41-14.58 8.67-22.64a27.9 27.9 0 0 0 -9.9-13.75z" fill="#f7ae2c" fill-rule="evenodd"/></svg>