<svg id="Layer_1" data-name="Layer 1" xmlns="http://www.w3.org/2000/svg" viewBox="0 0 69.46 69.33"><defs><style>.cls-1{fill:#ee4645;}</style></defs><title>1_logo</title><path class="cls-1" d="M22.26,6.53l1.69-.7a.16.16,0,0,1,.2.08.15.15,0,0,1-.08.19l-2,.82L20.49,3.07l2-.82a.16.16,0,0,1,.2.08.16.16,0,0,1-.08.19l-1.7.7.58,1.4L23,4a.15.15,0,0,1,.11.27l-1.56.65Z" transform="translate(0)"/><path class="cls-1" d="M25.36,1.57c-.38.11-.73.4-.61.85a.78.78,0,0,0,.58.52l1.14.3a1.17,1.17,0,0,1,.86.83,1.08,1.08,0,0,1-.88,1.34A1.07,1.07,0,0,1,25,4.68a.15.15,0,0,1,.1-.18.14.14,0,0,1,.18.1.77.77,0,0,0,1,.51c.52-.15.81-.51.68-.95a.92.92,0,0,0-.68-.64l-1.15-.3a1.09,1.09,0,0,1-.76-.73,1,1,0,0,1,.81-1.22,1,1,0,0,1,1.39.67.16.16,0,0,1-.1.18.15.15,0,0,1-.18-.1A.76.76,0,0,0,25.36,1.57Z" transform="translate(0)"/><path class="cls-1" d="M30.63,3.23a.16.16,0,0,1,.18.12,1.09,1.09,0,0,1-1,1.27,1.07,1.07,0,0,1-1.29-.89l-.34-2.09a1.08,1.08,0,0,1,1-1.24,1.06,1.06,0,0,1,1.29.86.15.15,0,0,1-.12.17.14.14,0,0,1-.16-.12.77.77,0,0,0-1-.62.78.78,0,0,0-.71.92l.34,2.07a.85.85,0,0,0,1.67-.28A.15.15,0,0,1,30.63,3.23Z" transform="translate(0)"/><path class="cls-1" d="M32.27.08,34,0a.16.16,0,0,1,.16.15A.15.15,0,0,1,34,.3l-.72,0,.16,3.56.73,0a.16.16,0,0,1,.16.15.15.15,0,0,1-.14.15l-1.74.08a.14.14,0,0,1-.15-.14.15.15,0,0,1,.14-.16l.72,0L33,.35l-.72,0a.14.14,0,0,1-.15-.14A.15.15,0,0,1,32.27.08Z" transform="translate(0)"/><path class="cls-1" d="M38.05,0A.15.15,0,0,1,38.2.2l-.28,4.12-.58,0-1-3.94h-.05L36,4.14a.15.15,0,1,1-.31,0L36,0l.56,0,1,4h.05L37.89.18A.15.15,0,0,1,38.05,0Z" transform="translate(0)"/><path class="cls-1" d="M40.83.84l-1-.18a.16.16,0,0,1-.12-.17.16.16,0,0,1,.18-.13l2.29.42A.16.16,0,0,1,42.3,1a.16.16,0,0,1-.17.12l-1-.18-.69,3.76a.15.15,0,0,1-.18.12.14.14,0,0,1-.11-.17Z" transform="translate(0)"/><path class="cls-1" d="M43,5l1.75.54a.16.16,0,0,1,.1.19.15.15,0,0,1-.19.09l-2-.63,1.22-4,2,.63a.15.15,0,1,1-.09.28L44,1.55,43.56,3l1.62.5a.15.15,0,0,1-.09.28l-1.62-.5Z" transform="translate(0)"/><path class="cls-1" d="M47.7,5l-.79-.34L46.2,6.33a.16.16,0,0,1-.2.08.16.16,0,0,1-.08-.21l1.65-3.78,1.11.48a1,1,0,0,1,.58,1.41l-.08.19A1.08,1.08,0,0,1,48,5.15v1.9a.14.14,0,0,1-.15.15A.16.16,0,0,1,47.7,7ZM49,4.21a.73.73,0,0,0-.41-1l-.83-.36L47,4.43l.84.37a.72.72,0,0,0,1-.42Z" transform="translate(0)"/><path class="cls-1" d="M53.83,9a.61.61,0,1,1,.85-.12A.6.6,0,0,1,53.83,9Z" transform="translate(0)"/><path class="cls-1" d="M58.28,15.22l-.79-.94,3.21-2.67.77.93a1,1,0,0,1-.12,1.52L59.8,15.35A1,1,0,0,1,58.28,15.22Zm2.86-1.38a.73.73,0,0,0,.1-1.11l-.58-.7-2.75,2.28.59.71a.72.72,0,0,0,1.1.09Z" transform="translate(0)"/><path class="cls-1" d="M63.31,15l1,1.46a.16.16,0,0,1,0,.21.15.15,0,0,1-.2,0l-.4-.61-3,2,.4.61a.16.16,0,0,1,0,.21.15.15,0,0,1-.2,0l-1-1.46a.14.14,0,0,1,0-.2.15.15,0,0,1,.21,0l.4.61,3-2-.4-.61a.14.14,0,0,1,0-.2A.15.15,0,0,1,63.31,15Z" transform="translate(0)"/><path class="cls-1" d="M65.53,19.22a.71.71,0,0,0-1-.44.78.78,0,0,0-.4.67l-.08,1.18a1.18,1.18,0,0,1-.66,1A1.08,1.08,0,0,1,62,21a1.07,1.07,0,0,1,.45-1.53.15.15,0,0,1,.2.07.15.15,0,0,1-.06.19.77.77,0,0,0-.31,1.12c.25.49.65.7,1.06.5a.92.92,0,0,0,.51-.78l.08-1.19a1.08,1.08,0,0,1,.58-.89,1,1,0,0,1,1.35.57,1,1,0,0,1-.4,1.49.16.16,0,0,1-.2-.07.15.15,0,0,1,.07-.2A.76.76,0,0,0,65.53,19.22Z" transform="translate(0)"/><path class="cls-1" d="M67,22.73l-.35-1a.15.15,0,0,1,.29-.1l.8,2.18a.15.15,0,0,1-.29.11l-.35-1-3.58,1.31a.15.15,0,0,1-.19-.09.14.14,0,0,1,.09-.19Z" transform="translate(0)"/><path class="cls-1" d="M66.21,27.14,66,26.3l-1.73.42a.15.15,0,1,1-.07-.3l4-1,.28,1.17a1,1,0,0,1-.78,1.31l-.2,0a1.08,1.08,0,0,1-1.23-.55l-1.51,1.14a.14.14,0,0,1-.21,0,.16.16,0,0,1,0-.21Zm1.42.51a.73.73,0,0,0,.58-.95L68,25.82l-1.71.41.22.89a.72.72,0,0,0,1,.57Z" transform="translate(0)"/><path class="cls-1" d="M69.09,29.62l.21,1.73a.16.16,0,0,1-.14.17.15.15,0,0,1-.16-.13l-.09-.72-3.54.43.09.72a.16.16,0,0,1-.14.17.15.15,0,0,1-.16-.13l-.21-1.73a.14.14,0,0,1,.13-.16.15.15,0,0,1,.17.12l.09.72,3.54-.43-.09-.72a.14.14,0,0,1,.13-.16A.15.15,0,0,1,69.09,29.62Z" transform="translate(0)"/><path class="cls-1" d="M65.27,34.53V33.29l4.17,0v1.2a1,1,0,0,1-1,1.06h-.07a1,1,0,0,1-.9-.46.92.92,0,0,1-.94.55h-.14A1,1,0,0,1,65.27,34.53Zm1.21.78a.7.7,0,0,0,.79-.77v-1h-1.7v.93a.73.73,0,0,0,.79.79Zm1.91-.09a.68.68,0,0,0,.75-.75v-.91H67.56v.94c0,.31.11.71.77.71Z" transform="translate(0)"/><path class="cls-1" d="M69.24,39.39a.15.15,0,0,1-.17.14L66,39.19A1.1,1.1,0,0,1,65,37.91a1.07,1.07,0,0,1,1.2-1l3.07.34a.15.15,0,0,1,.13.17.15.15,0,0,1-.16.13l-3.07-.34A.85.85,0,0,0,66,38.89l3.07.34A.15.15,0,0,1,69.24,39.39Z" transform="translate(0)"/><path class="cls-1" d="M68.78,41.46l-.38,1.7a.16.16,0,0,1-.18.11.15.15,0,0,1-.11-.18l.16-.71-3.48-.79-.16.71a.16.16,0,0,1-.19.11.15.15,0,0,1-.11-.18l.38-1.7a.14.14,0,0,1,.17-.11.15.15,0,0,1,.12.17l-.16.71,3.48.79.16-.71a.14.14,0,0,1,.17-.11A.15.15,0,0,1,68.78,41.46Z" transform="translate(0)"/><path class="cls-1" d="M63.52,44.83l.41-1.16,3.94,1.39-.4,1.14a1,1,0,0,1-1.37.67l-1.91-.67A1,1,0,0,1,63.52,44.83Zm2.66,1.75a.73.73,0,0,0,1-.49l.3-.86-3.37-1.19-.3.87a.72.72,0,0,0,.49,1Z" transform="translate(0)"/><path class="cls-1" d="M62.18,47.92a1.07,1.07,0,0,1,1.47-.54l1.9.92a1.15,1.15,0,0,1-1,2.07l-1.9-.92A1.1,1.1,0,0,1,62.18,47.92Zm2.49,2.17a.85.85,0,0,0,.74-1.53l-1.89-.91a.85.85,0,0,0-.74,1.52Z" transform="translate(0)"/><path class="cls-1" d="M62,52l.46-.72-1.5-1a.16.16,0,0,1-.05-.21.16.16,0,0,1,.21,0l3.48,2.21-.65,1a1,1,0,0,1-1.48.35l-.17-.11a1.08,1.08,0,0,1-.46-1.26L60,52a.14.14,0,0,1-.12-.17.15.15,0,0,1,.17-.12Zm.63,1.38a.73.73,0,0,0,1.08-.24l.48-.77-1.48-.94-.49.78a.72.72,0,0,0,.25,1.08Z" transform="translate(0)"/><path class="cls-1" d="M55.23,57.47a.15.15,0,0,1,0-.2.15.15,0,0,1,.21-.05l1,.64,1.12-1.1-.62-1a.15.15,0,0,1,0-.21.14.14,0,0,1,.21.05l2.16,3.56-.58.57Zm3.49,1.86.26-.25L57.71,57l-1,1Z" transform="translate(0)"/><path class="cls-1" d="M55.34,62.72a.15.15,0,0,1-.21,0l-1.9-2.45a1.09,1.09,0,0,1,.26-1.57,1.07,1.07,0,0,1,1.56.17l1.89,2.44a.15.15,0,0,1,0,.21.15.15,0,0,1-.21,0L54.81,59a.85.85,0,0,0-1.34,1l1.89,2.44A.14.14,0,0,1,55.34,62.72Z" transform="translate(0)"/><path class="cls-1" d="M52.75,63.95l.87-.53a.15.15,0,0,1,.16.26l-2,1.21a.15.15,0,0,1-.16-.26l.87-.53-2-3.26a.14.14,0,0,1,0-.21.14.14,0,0,1,.2.05Z" transform="translate(0)"/><path class="cls-1" d="M47.53,62.3a1.07,1.07,0,0,1,1.48.51l.89,1.92a1.15,1.15,0,0,1-2.09,1l-.89-1.92A1.1,1.1,0,0,1,47.53,62.3Zm.55,3.26a.85.85,0,0,0,1.54-.71l-.88-1.91a.85.85,0,0,0-1.54.71Z" transform="translate(0)"/><path class="cls-1" d="M44.85,65.37l.81-.27-.56-1.69a.15.15,0,1,1,.29-.1l1.29,3.91-1.15.38a1,1,0,0,1-1.37-.67l-.06-.19a1.08,1.08,0,0,1,.45-1.27l-1.26-1.41a.14.14,0,0,1,0-.21.16.16,0,0,1,.21,0Zm-.39,1.46a.73.73,0,0,0,1,.5l.86-.28-.55-1.67-.87.29a.72.72,0,0,0-.49,1Z" transform="translate(0)"/><path class="cls-1" d="M42.61,68.44l-1.7.35a.16.16,0,0,1-.18-.12.15.15,0,0,1,.12-.17l.71-.15-.72-3.5-.71.15a.16.16,0,0,1-.18-.12.15.15,0,0,1,.12-.17l1.7-.35a.14.14,0,0,1,.17.11.15.15,0,0,1-.11.18l-.71.15.72,3.5.71-.15a.14.14,0,0,1,.17.11A.15.15,0,0,1,42.61,68.44Z" transform="translate(0)"/><path class="cls-1" d="M38.89,69.1l-2,.18,0-.29,1.52-3.72-1.89.17a.15.15,0,0,1-.16-.14.14.14,0,0,1,.14-.16l2.21-.2,0,.3L37.17,69l1.69-.15a.14.14,0,0,1,.16.13A.14.14,0,0,1,38.89,69.1Z" transform="translate(0)"/><path class="cls-1" d="M32.6,65.22a.15.15,0,1,1,.3-.06l.26,1.19,1.57,0L35,65.22a.15.15,0,0,1,.18-.11.14.14,0,0,1,.11.19l-1.06,4-.82,0ZM33.68,69H34l.6-2.34-1.43,0Z" transform="translate(0)"/><path class="cls-1" d="M30.42,64.85l1.22.17L31,69.15,29.85,69a1,1,0,0,1-.93-1.21l.29-2A1,1,0,0,1,30.42,64.85Zm-1.2,2.95a.74.74,0,0,0,.67.89l.9.13.51-3.54-.91-.13a.72.72,0,0,0-.88.67Z" transform="translate(0)"/><path class="cls-1" d="M27.1,64.12a1.07,1.07,0,0,1,.81,1.34l-.54,2a1.15,1.15,0,0,1-2.22-.59l.54-2A1.09,1.09,0,0,1,27.1,64.12ZM25.45,67a.85.85,0,0,0,1.64.43l.54-2A.85.85,0,0,0,26,64.95Z" transform="translate(0)"/><path class="cls-1" d="M18,65a.16.16,0,0,1-.21-.07.14.14,0,0,1,.06-.19l1.77-1-.14-2.55a.16.16,0,0,1,.15-.16.16.16,0,0,1,.16.16L20,63.65l.72-.38.62-1.18a.15.15,0,0,1,.2-.06.14.14,0,0,1,.06.2l-1.89,3.61a.14.14,0,0,1-.2.06.15.15,0,0,1-.06-.2l1-1.95Z" transform="translate(0)"/><path class="cls-1" d="M14.39,62.84a.15.15,0,0,1,0-.21l2.32-3.41.48.33L16,63.44l0,0,2.14-3.15a.15.15,0,1,1,.25.17l-2.32,3.41-.46-.32,1.13-3.94,0,0L14.59,62.8A.15.15,0,0,1,14.39,62.84Z" transform="translate(0)"/><path class="cls-1" d="M14.87,57.69A1.07,1.07,0,0,1,15,59.25l-1.38,1.6a1.15,1.15,0,0,1-1.73-1.51l1.38-1.6A1.1,1.1,0,0,1,14.87,57.69Zm-2.75,1.84a.85.85,0,0,0,1.28,1.11l1.38-1.59a.85.85,0,0,0-1.28-1.11Z" transform="translate(0)"/><path class="cls-1" d="M13.09,56.14l-3,2.78a.14.14,0,0,1-.21,0,.15.15,0,0,1,0-.21l2.82-2.58-1.24-1.35a.16.16,0,0,1,0-.22.15.15,0,0,1,.21,0Z" transform="translate(0)"/><path class="cls-1" d="M10.76,53.51,7.43,55.93a.15.15,0,0,1-.21,0,.15.15,0,0,1,0-.21l3.09-2.24L9.27,52a.16.16,0,0,1,0-.22.15.15,0,0,1,.21,0Z" transform="translate(0)"/><path class="cls-1" d="M2.31,47.68a.15.15,0,0,1-.16-.14.15.15,0,0,1,.13-.16L7.17,47a.16.16,0,0,1,.17.14.15.15,0,0,1-.13.16Z" transform="translate(0)"/><path class="cls-1" d="M.51,39.83a.16.16,0,0,1-.07-.21.14.14,0,0,1,.19-.07l1.83.83L4.4,38.72a.15.15,0,0,1,.22,0,.16.16,0,0,1,0,.22L2.75,40.52l.74.33,1.32-.23a.15.15,0,0,1,.17.12.14.14,0,0,1-.12.17l-4,.69a.14.14,0,0,1-.17-.12.15.15,0,0,1,.12-.17L3,40.95Z" transform="translate(0)"/><path class="cls-1" d="M0,35.58a.16.16,0,0,1,.14-.16l3.09-.17a1.1,1.1,0,0,1,1.14,1.11,1.07,1.07,0,0,1-1,1.19l-3.09.17a.14.14,0,0,1-.16-.14.15.15,0,0,1,.14-.16l3.09-.17a.85.85,0,0,0-.09-1.7l-3.09.17A.14.14,0,0,1,0,35.58Z" transform="translate(0)"/><path class="cls-1" d="M.42,32.66c0,.39.14.83.6.85a.78.78,0,0,0,.68-.38l.66-1a1.17,1.17,0,0,1,1.07-.54A1.2,1.2,0,0,1,3.26,34a.15.15,0,0,1,0-.29.77.77,0,0,0,.83-.82c0-.54-.21-.93-.67-1a.92.92,0,0,0-.83.42l-.66,1a1.08,1.08,0,0,1-.94.48,1,1,0,0,1-.89-1.17A1,1,0,0,1,1.2,31.55a.16.16,0,0,1,.14.16.15.15,0,0,1-.16.13C.75,31.82.45,32.17.42,32.66Z" transform="translate(0)"/><path class="cls-1" d="M3.75,28.22a.16.16,0,0,1,.17-.13,1.09,1.09,0,0,1,.87,1.33,1.07,1.07,0,0,1-1.27.92L1.45,30A1.08,1.08,0,0,1,.6,28.65a1.06,1.06,0,0,1,1.24-.93A.15.15,0,0,1,2,27.9a.14.14,0,0,1-.17.11.77.77,0,0,0-.9.69.78.78,0,0,0,.62,1L3.58,30a.85.85,0,0,0,.29-1.67A.15.15,0,0,1,3.75,28.22Z" transform="translate(0)"/><path class="cls-1" d="M1.26,25.95a.14.14,0,0,1-.1-.18.15.15,0,0,1,.19-.1l1.7.5.5-1.7L1.85,24a.14.14,0,0,1-.1-.18.15.15,0,0,1,.19-.1l3.9,1.16a.14.14,0,0,1,.1.19.14.14,0,0,1-.18.09l-1.92-.57-.5,1.7,1.92.57a.14.14,0,0,1,.1.19.14.14,0,0,1-.18.1Z" transform="translate(0)"/><path class="cls-1" d="M4.9,22.38l.42-.92-.89-.4a.14.14,0,1,1,.11-.25l.88.4.42-.93a.14.14,0,0,1,.26.12l-.42.93,1,.43a.13.13,0,0,1,.07.18.14.14,0,0,1-.19.07l-1-.43-.42.92a.14.14,0,0,1-.18.07A.14.14,0,0,1,4.9,22.38Z" transform="translate(0)"/><path class="cls-1" d="M8.4,17.1A.16.16,0,0,1,8.61,17a1.09,1.09,0,0,1,.32,1.56A1.07,1.07,0,0,1,7.41,19L5.61,17.87a1.08,1.08,0,0,1-.3-1.54,1.06,1.06,0,0,1,1.5-.4.15.15,0,0,1,0,.2.14.14,0,0,1-.2,0,.77.77,0,0,0-1.09.31.77.77,0,0,0,.22,1.14l1.78,1.11a.77.77,0,0,0,1.12-.31.77.77,0,0,0-.23-1.13A.14.14,0,0,1,8.4,17.1Z" transform="translate(0)"/><path class="cls-1" d="M10.91,15.77A1.07,1.07,0,0,1,9.36,16L7.7,14.67a1.08,1.08,0,0,1-.12-1.57,1.09,1.09,0,0,1,1.55-.23l1.66,1.31A1.09,1.09,0,0,1,10.91,15.77Zm-2-2.66a.77.77,0,0,0-1.14.18.77.77,0,0,0,.09,1.16l1.65,1.3a.85.85,0,0,0,1-1.33Z" transform="translate(0)"/><path class="cls-1" d="M15.69,9.05a.61.61,0,1,1,.13-.85A.61.61,0,0,1,15.69,9.05Z" transform="translate(0)"/><path class="cls-1" d="M42.6,34.61a.4.4,0,0,0-.21-.34L35.6,30.41l6.79-3.92a.4.4,0,0,0,0-.69L35,21.49a.4.4,0,0,0-.4,0l-7.43,4.3-.08.06,0,0,0,0h0a.41.41,0,0,0,0,.18v17h0a.42.42,0,0,0,0,.13v0a.4.4,0,0,0,.08.11h0l.08.06,7.43,4.31a.41.41,0,0,0,.2.05.4.4,0,0,0,.2-.05l7.4-4.31a.4.4,0,0,0,0-.69L35.59,39l6.8-4A.4.4,0,0,0,42.6,34.61ZM34.79,22.3l6.6,3.84-6.6,3.81-6.63-3.81Zm-7,4.53,4.37,2.51,2.26,1.3v7.62l-6.63-3.87Zm0,8.48L34,39l-6.23,3.54Zm13.63,7.87L34.79,47l-6.62-3.85,6.62-3.76Zm-6.2-4.92V31.1l6.2,3.52Z" transform="translate(0)"/><path class="cls-1" d="M34.78,7.85A26.82,26.82,0,1,1,8,34.67,26.85,26.85,0,0,1,34.78,7.85m0-.75A27.57,27.57,0,1,0,62.34,34.67,27.57,27.57,0,0,0,34.78,7.1Z" transform="translate(0)"/></svg>