<svg id="Layer_1" data-name="Layer 1" xmlns="http://www.w3.org/2000/svg" viewBox="0 0 731.02 494.87"><defs><style>.cls-1,.cls-2{fill:#fff;}.cls-2{fill-rule:evenodd;}.cls-3{fill:none;stroke:#fff;stroke-miterlimit:10;stroke-width:3px;}</style></defs><title>logo_bb-private</title><polygon class="cls-1" points="291.79 178.5 352.47 137.83 326.16 120.44 359.86 97.39 431.83 146.1 315.29 225.03 339.86 241.56 460.11 160.89 484.25 144.58 460.11 128.27 363.13 63.03 265.93 128.05 240.92 144.8 265.93 161.31 291.79 178.5"/><polygon class="cls-1" points="265.71 258.3 240.48 275.48 240.7 308.54 265.93 291.8 290.71 275.48 265.93 258.52 265.71 258.3"/><polygon class="cls-1" points="433.8 192.63 373.13 233.29 399.44 250.48 365.73 273.31 293.76 225.03 410.31 146.1 385.74 129.57 265.93 210.25 241.13 226.78 265.93 243.52 362.26 307.88 460.11 242.64 484.68 226.33 460.11 210.03 433.8 192.63"/><polygon class="cls-1" points="460.11 80.64 435.96 96.74 460.11 113.26 460.98 113.92 485.55 97.39 485.77 63.68 460.11 80.64"/><path class="cls-2" d="M229.83,349.2H192.07v82.9h21.32V398.94h15.35c22.83,0,25.87-15,25.87-24.77C254.62,358.74,247.66,349.2,229.83,349.2Zm-4.57,35.53H213.39V361h11.87c4.14,0,8.48,4.13,8.48,12.4C233.74,380.17,227.87,384.73,225.26,384.73Z"/><path class="cls-2" d="M310.51,380.55c0-11.73-7-17.13-17.83-17.13H258.39V432.1H275V375.26h8.78c5,0,9.57,2.84,9.57,9.58,0,5.87-3,11.73-7.6,9.37h-5L297,432.1h16.09l-15-33.38C307,397,310.51,391,310.51,380.55Z"/><rect class="cls-1" x="312.87" y="363.41" width="18.95" height="68.69"/><polygon class="cls-2" points="378.13 363.41 366.82 413.15 366.6 413.15 356.6 363.41 338.12 363.41 355.95 432.1 376.38 432.1 395.3 363.41 378.13 363.41"/><path class="cls-2" d="M413.13,363.41h-9.56l-21.1,68.69h17.4l4.36-14.21H422l4.35,14.21h18.49l-20.44-68.69Zm0,42.63h-6.74l5.7-26.05h0L419.88,406Z"/><polygon class="cls-2" points="428.93 375.26 447.88 375.26 447.88 432.1 464.46 432.1 464.46 375.26 481.04 375.26 481.04 363.41 428.93 363.41 428.93 375.26"/><polygon class="cls-2" points="504.73 422.63 504.73 401.31 528.41 401.31 528.41 391.84 504.73 391.84 504.73 375.26 528.41 375.26 528.41 363.41 488.15 363.41 488.15 432.1 530.78 432.1 530.78 422.63 504.73 422.63"/><rect class="cls-3" x="1.5" y="1.5" width="728.02" height="491.87"/></svg>