<svg viewBox="0 0 731.02 494.87" xmlns="http://www.w3.org/2000/svg"><g fill="#fff"><path d="m291.79 178.5 60.68-40.67-26.31-17.39 33.7-23.05 71.97 48.71-116.54 78.93 24.57 16.53 120.25-80.67 24.14-16.31-24.14-16.31-96.98-65.24-97.2 65.02-25.01 16.75 25.01 16.51z"/><path d="m265.71 258.3-25.23 17.18.22 33.06 25.23-16.74 24.78-16.32-24.78-16.96z"/><path d="m433.8 192.63-60.67 40.66 26.31 17.19-33.71 22.83-71.97-48.28 116.55-78.93-24.57-16.53-119.81 80.68-24.8 16.53 24.8 16.74 96.33 64.36 97.85-65.24 24.57-16.31-24.57-16.3z"/><path d="m460.11 80.64-24.15 16.1 24.15 16.52.87.66 24.57-16.53.22-33.71z"/><path d="m229.83 349.2h-37.76v82.9h21.32v-33.16h15.35c22.83 0 25.87-15 25.87-24.77.01-15.43-6.95-24.97-24.78-24.97zm-4.57 35.53h-11.87v-23.73h11.87c4.14 0 8.48 4.13 8.48 12.4 0 6.77-5.87 11.33-8.48 11.33z" fill-rule="evenodd"/><path d="m310.51 380.55c0-11.73-7-17.13-17.83-17.13h-34.29v68.68h16.61v-56.84h8.78c5 0 9.57 2.84 9.57 9.58 0 5.87-3 11.73-7.6 9.37h-5l16.25 37.89h16.09l-15-33.38c8.91-1.72 12.42-7.72 12.42-18.17z" fill-rule="evenodd"/><path d="m312.87 363.41h18.95v68.69h-18.95z"/><path d="m378.13 363.41-11.31 49.74h-.22l-10-49.74h-18.48l17.83 68.69h20.43l18.92-68.69z" fill-rule="evenodd"/><path d="m413.13 363.41h-9.56l-21.1 68.69h17.4l4.36-14.21h17.77l4.35 14.21h18.49l-20.44-68.69zm0 42.63h-6.74l5.7-26.05 7.79 26.01z" fill-rule="evenodd"/><path d="m428.93 375.26h18.95v56.84h16.58v-56.84h16.58v-11.85h-52.11z" fill-rule="evenodd"/><path d="m504.73 422.63v-21.32h23.68v-9.47h-23.68v-16.58h23.68v-11.85h-40.26v68.69h42.63v-9.47z" fill-rule="evenodd"/></g><path d="m1.5 1.5h728.02v491.87h-728.02z" fill="none" stroke="#fff" stroke-miterlimit="10" stroke-width="3"/></svg>